<svg width="53" height="41" viewBox="0 0 53 41" fill="none" xmlns="http://www.w3.org/2000/svg">
<path d="M23.084 23.5C20.2506 20 17.584 20 23.084 10.5C23.8762 9.1316 28.5706 2.5 28.2373 1C29.9227 7.43535 37.5516 11.8457 26.5875 21.5831C41.4681 14.3255 49.1032 22.2462 51.7372 25.5C48.4545 29.6034 39.3657 31.4438 23.8085 23.8578C23.7977 23.8661 23.7869 23.8743 23.776 23.8826C23.776 23.8826 23.776 23.8826 23.776 23.8826C36.9028 31.2825 31.752 36.781 41.7373 39C45.9643 39.9393 17.8498 42.6434 21.8831 26.8056C15.7656 41.6443 6.26223 37.4386 1.73727 35C6.31883 29.1458 12.192 26.8478 17.0041 25.5641C5.24852 27.9409 0.0109252 19 1.73726 19C27.9861 19 11.084 14.5929 23.084 23.5Z" fill="url(#paint0_radial_2_1773)"/>
<path d="M23.084 23.5C20.2506 20 17.584 20 23.084 10.5C23.8762 9.1316 28.5706 2.5 28.2373 1C30.05 7.92115 38.7373 12.5 23.776 23.8826M23.084 23.5C40.284 13.1 48.9039 22 51.7372 25.5C48.4039 29.6667 39.084 31.5 23.084 23.5ZM23.084 23.5C11.084 14.5929 27.9861 19 1.73726 19C-0.262722 19 7.08396 31 23.084 23.5ZM23.084 23.5C14.084 43 46.2373 40 41.7373 39C31.5807 36.743 37.084 31.0928 23.084 23.5ZM23.084 23.5C23.2011 23.3648 23.776 23.8826 23.776 23.8826M23.084 23.5C17.084 42.2257 6.5706 37.6048 1.73727 35C8.93727 25.8 19.3271 25.3826 23.776 23.8826" stroke="#0A0043"/>
<circle cx="23" cy="24" r="1" fill="#C6AD24"/>
<circle cx="21" cy="25" r="1" fill="#C6AD24"/>
<circle cx="22" cy="23" r="1" fill="#C6AD24"/>
<circle cx="24" cy="23" r="1" fill="#C6AD24"/>
<circle cx="24" cy="25" r="1" fill="#C6AD24"/>
<defs>
<radialGradient id="paint0_radial_2_1773" cx="0" cy="0" r="1" gradientUnits="userSpaceOnUse" gradientTransform="translate(22.8946 22.4117) rotate(90) scale(21.9117 28.8426)">
<stop offset="0.215" stop-color="#0B0069"/>
<stop offset="1" stop-color="#46C9ED"/>
</radialGradient>
</defs>
</svg>
