<svg width="41" height="39" viewBox="0 0 41 39" fill="none" xmlns="http://www.w3.org/2000/svg">
<path d="M8.08914 22.6022C7.97811 22.654 7.87276 22.7062 7.77357 22.7581L8.08914 22.6022Z" fill="url(#paint0_linear_1_9)"/>
<path d="M27.0435 28.1687C25.4822 28.6792 21.5573 28.6624 18.3474 24.5117C15.2831 20.5491 10.4263 21.5107 8.08914 22.6022M8.08914 22.6022C7.97811 22.654 7.87276 22.7062 7.77357 22.7581L8.08914 22.6022Z" stroke="#E7D83D"/>
<path d="M24.2168 7.89467C24.2836 7.81165 24.3497 7.73369 24.4147 7.66104L24.2168 7.89467Z" fill="url(#paint1_linear_1_9)"/>
<path d="M26.4288 25.9776C27.1615 24.7509 27.776 21.3146 24.3723 17.3821C21.123 13.6279 22.8109 9.64209 24.2168 7.89467M24.2168 7.89467C24.2836 7.81165 24.3497 7.73369 24.4147 7.66104L24.2168 7.89467Z" stroke="#E7D83D"/>
<path d="M11.5162 17.0605C11.4551 17.0558 11.0101 16.7838 10.5666 16.5125L9.62589 15.9697C9.68182 15.9714 10.1235 16.2416 10.5666 16.5125L11.5162 17.0605Z" fill="url(#paint2_linear_1_9)"/>
<path d="M23.755 30.1462C22.1443 29.8241 18.7334 27.882 17.9757 22.6899C17.2523 17.7333 15.9605 18.6602 11.5162 17.0605M11.5162 17.0605C11.394 17.0511 9.7378 15.9732 9.62589 15.9697L11.5162 17.0605Z" stroke="#E7D83D"/>
<path d="M29.6699 30.8891C27.487 32.6643 19.8644 34.7372 6.83694 28.8278C13.3277 27.376 18.1017 26.7476 21.5669 26.6515C19.4464 25.015 17.6632 22.9558 17.0812 20.4781C15.5369 13.9037 11.6869 -5.75958 21.2815 14.9729C29.2161 28.9871 28.1624 25.3951 28.8141 27.8932C28.8274 27.9022 28.8405 27.9112 28.8536 27.9203C26.8789 19.94 25.4621 7.58001 31.6456 5.05767C33.1969 9.4805 34.9737 20.8387 29.6699 30.8891Z" fill="url(#paint3_linear_1_9)"/>
<path d="M29.6699 30.8891C27.487 32.6643 19.8644 34.7373 6.83694 28.8278C28.2411 24.0401 30.9773 28.2071 29.6699 30.8891ZM29.6699 30.8891C26.141 29.6744 18.4223 26.1874 17.0812 20.4781C15.5369 13.9037 11.6869 -5.75958 21.2815 14.9729C31.0481 32.2228 27.1966 22.7978 29.6699 30.8891ZM29.6699 30.8891C27.4027 23.4721 24.6238 7.92196 31.6456 5.05767C33.1969 9.4805 34.9737 20.8387 29.6699 30.8891Z" stroke="#B77FC6"/>
<defs>
<linearGradient id="paint0_linear_1_9" x1="15.0743" y1="19.741" x2="19.7291" y2="31.1523" gradientUnits="userSpaceOnUse">
<stop offset="0.33" stop-color="#CE8ECD"/>
<stop offset="1" stop-color="#4A0A49"/>
</linearGradient>
<linearGradient id="paint1_linear_1_9" x1="20.3935" y1="13.2261" x2="30.4206" y2="20.3915" gradientUnits="userSpaceOnUse">
<stop offset="0.33" stop-color="#CE8ECD"/>
<stop offset="1" stop-color="#4A0A49"/>
</linearGradient>
<linearGradient id="paint2_linear_1_9" x1="17.4627" y1="16.9625" x2="15.9182" y2="29.1532" gradientUnits="userSpaceOnUse">
<stop offset="0.33" stop-color="#CE8ECD"/>
<stop offset="1" stop-color="#4A0A49"/>
</linearGradient>
<linearGradient id="paint3_linear_1_9" x1="14.7912" y1="6.03359" x2="25.6917" y2="32.7559" gradientUnits="userSpaceOnUse">
<stop offset="0.33" stop-color="#CE8ECD"/>
<stop offset="1" stop-color="#4A0A49"/>
</linearGradient>
</defs>
</svg>
