<svg width="144" height="100" viewBox="0 0 144 100" fill="none" xmlns="http://www.w3.org/2000/svg">
<path d="M3.00002 16.5C3.00002 16.5 32 32.4951 75 32.4951C118 32.4951 144 16.5 144 16.5C144 16.5 144 45.4951 144 75.4951C144 105.495 3.00008 108.495 3.00002 75.4951C2.99997 42.4951 3.00002 16.5 3.00002 16.5Z" fill="#270B04"/>
<path d="M143.5 17C143.5 19.0472 141.726 21.1556 138.098 23.1806C134.513 25.182 129.292 27.0007 122.797 28.5342C109.815 31.5993 91.8553 33.5 72 33.5C52.1447 33.5 34.185 31.5993 21.2032 28.5342C14.7083 27.0007 9.48714 25.182 5.90183 23.1806C2.2744 21.1556 0.5 19.0472 0.5 17C0.5 14.9528 2.2744 12.8444 5.90183 10.8194C9.48714 8.81799 14.7083 6.99932 21.2032 5.4658C34.185 2.40065 52.1447 0.5 72 0.5C91.8553 0.5 109.815 2.40065 122.797 5.4658C129.292 6.99932 134.513 8.81799 138.098 10.8194C141.726 12.8444 143.5 14.9528 143.5 17Z" fill="url(#paint0_linear_6_3435)" stroke="#1D0600"/>
<defs>
<linearGradient id="paint0_linear_6_3435" x1="144" y1="17" x2="0" y2="17" gradientUnits="userSpaceOnUse">
<stop offset="0.375" stop-color="#BE7B37"/>
<stop offset="1" stop-color="#7D3F02"/>
</linearGradient>
</defs>
</svg>
