<svg width="446" height="54" viewBox="0 0 446 54" fill="none" xmlns="http://www.w3.org/2000/svg">
<path d="M0 2C30.1706 57.8987 172.124 44.3017 221 2" stroke="#957254"/>
<path d="M12.6391 16.6531C12.8415 18.9475 13.976 19.7195 8.91344 22.1279C8.18422 22.4748 4.28639 23.9084 3.99833 24.6366C5.12551 21.4385 3.14362 17.3723 10.5991 16.446C2.18796 15.1941 1.20946 9.64774 1.02127 7.51483C3.5939 6.73721 7.9883 8.59366 12.4333 16.2927C12.4403 16.2923 12.4473 16.292 12.4543 16.2917C12.4543 16.2917 12.4543 16.2917 12.4543 16.2917C8.99 9.37469 12.7573 8.55038 9.1448 4.72485C7.61555 3.1054 20.3522 10.1067 14.0973 15.6087C20.9527 11.1309 23.7907 15.6536 25.0171 17.9907C19.7066 19.6582 15.4029 17.3136 12.9611 16.4545C12.857 16.5211 12.7497 16.5873 12.6391 16.6531C21.5959 18.1272 21.7687 27.7952 20.9178 27.2161C9.74981 19.6163 15.192 23.8786 12.6391 16.6531Z" fill="url(#paint0_radial_2_3379)"/>
<path d="M12.6391 16.6531C12.8415 18.9475 13.976 19.7195 8.91344 22.1279C8.18422 22.4748 4.28639 23.9084 3.99833 24.6366C5.2106 21.197 2.82668 16.7535 12.4543 16.2917M12.6391 16.6531C2.34057 16.053 1.2237 9.80914 1.02126 7.51483C3.63359 6.72522 8.1243 8.65156 12.6391 16.6531ZM12.6391 16.6531C15.192 23.8786 9.74981 19.6163 20.9178 27.2161C21.7687 27.7952 21.5959 18.1272 12.6391 16.6531ZM12.6391 16.6531C22.0566 11.0468 7.5168 3.00082 9.1448 4.72485C12.8192 8.61602 8.85854 9.40209 12.6391 16.6531ZM12.6391 16.6531C12.5505 16.6762 12.4543 16.2917 12.4543 16.2917M12.6391 16.6531C20.5584 10.5043 23.7071 15.4943 25.0171 17.9907C19.3171 19.7805 14.777 16.9481 12.4543 16.2917" stroke="#0A0043"/>
<path d="M200.384 15.6233C200.432 17.926 201.512 18.7727 196.299 20.8351C195.548 21.1322 191.562 22.3004 191.226 23.0076C192.566 19.8925 190.862 15.7022 198.362 15.2795C190.055 13.4646 189.451 7.86507 189.407 5.72433C192.026 5.12149 196.286 7.26928 200.203 15.2498C200.21 15.2499 200.217 15.2501 200.224 15.2502C200.224 15.2502 200.224 15.2502 200.224 15.2502C197.233 8.11591 201.047 7.54683 197.7 3.48702C196.283 1.76838 208.52 9.6104 201.909 14.6793C209.05 10.6727 211.578 15.376 212.644 17.7903C207.233 19.0968 203.097 16.4681 200.719 15.4468C200.61 15.5062 200.499 15.565 200.384 15.6233C209.221 17.6964 208.743 27.3541 207.933 26.7192C197.302 18.3854 202.445 23.0041 200.384 15.6233Z" fill="url(#paint1_radial_2_3379)"/>
<path d="M200.384 15.6233C200.432 17.926 201.512 18.7727 196.299 20.8351C195.548 21.1322 191.562 22.3004 191.226 23.0076C192.667 19.6573 190.587 15.0635 200.224 15.2502M200.384 15.6233C190.149 14.3319 189.455 8.02706 189.407 5.72433C192.067 5.1122 196.418 7.3362 200.384 15.6233ZM200.384 15.6233C202.445 23.0041 197.302 18.3854 207.933 26.7192C208.743 27.3541 209.221 17.6964 200.384 15.6233ZM200.384 15.6233C210.157 10.6631 196.191 1.6574 197.7 3.48702C201.104 7.61649 197.1 8.13441 200.384 15.6233ZM200.384 15.6233C200.294 15.6403 200.224 15.2502 200.224 15.2502M200.384 15.6233C208.699 10.021 211.505 15.2115 212.644 17.7903C206.837 19.1927 202.497 16.0613 200.224 15.2502" stroke="#430034"/>
<path d="M176.412 25.4501C174.954 23.6672 173.582 23.6672 176.412 18.8279C176.82 18.1308 176.185 12.7774 176.014 12.0133C176.89 15.3263 183.585 19.33 178 24.6122C185.723 21.1027 189.132 28.1191 190.5 29.7915C188.81 31.8819 184.771 29.5965 176.783 25.6338C176.778 25.6375 176.773 25.6412 176.768 25.6449C176.768 25.6449 176.768 25.6449 176.768 25.6449C183.524 29.4144 180.873 32.2154 186.012 33.3457C188.201 33.8273 173.532 35.2193 175.836 26.9775C172.364 34.9498 164.533 34.5974 162.186 33.3457C165.653 28.9609 173.393 26.7088 176.251 25.8112C176.301 25.6925 176.355 25.5722 176.412 25.4501C168.178 29.2705 162.596 21.3749 163.625 21.3749C177.134 21.3749 170.236 20.9128 176.412 25.4501Z" fill="url(#paint2_radial_2_3379)"/>
<path d="M176.412 25.4501C174.954 23.6672 173.582 23.6672 176.412 18.8279C176.82 18.1308 176.185 12.7774 176.014 12.0133C176.946 15.5389 184.468 19.8467 176.768 25.6449M176.412 25.4501C185.264 20.1523 189.041 28.0086 190.5 29.7915C188.784 31.914 184.646 29.5252 176.412 25.4501ZM176.412 25.4501C170.236 20.9128 177.134 21.3749 163.625 21.3749C162.596 21.3749 168.178 29.2705 176.412 25.4501ZM176.412 25.4501C171.78 35.3833 188.328 33.8551 186.012 33.3457C180.785 32.196 183.617 29.3178 176.412 25.4501ZM176.412 25.4501C176.472 25.3812 176.768 25.6449 176.768 25.6449M176.412 25.4501C173.324 34.9889 164.673 34.6725 162.186 33.3457C165.891 28.6592 174.479 26.409 176.768 25.6449" stroke="#3A0043"/>
<path d="M149.514 34.1076C147.217 34.2873 146.434 35.4141 144.076 30.3278C143.736 29.5952 140.244 25.5013 139.518 25.206C142.719 26.37 148.657 24.5651 149.726 32.1669C151.034 23.6786 156.624 22.7488 158.767 22.5811C159.519 25.1614 157.619 29.5371 149.876 33.9055C149.876 33.9125 149.877 33.9194 149.877 33.9264C149.877 33.9276 149.876 33.9287 149.876 33.9299C156.907 30.6087 160.019 36.6822 163.881 33.1074C165.519 31.5911 156.227 42.2099 150.533 35.5592C154.96 42.4711 150.404 45.2677 148.053 46.4717C146.438 41.1447 148.826 36.8643 149.709 34.4313C149.643 34.3263 149.578 34.2185 149.514 34.1076C147.951 43.0494 136.297 39.2202 136.884 38.3751C144.595 27.2832 142.263 36.5887 149.514 34.1076Z" fill="url(#paint3_radial_2_3379)"/>
<path d="M149.514 34.1076C147.217 34.2873 146.434 35.4141 144.076 30.3278C143.736 29.5952 140.244 25.5013 139.518 25.206C142.946 26.4524 149.511 24.2947 149.877 33.9264M149.514 34.1076C150.216 23.8156 156.471 22.7608 158.767 22.5811C159.53 25.2012 157.56 29.6725 149.514 34.1076ZM149.514 34.1076C142.263 36.5887 144.595 27.2832 136.884 38.3751C136.297 39.2202 147.951 43.0494 149.514 34.1076ZM149.514 34.1076C155.026 43.5804 165.621 31.4966 163.881 33.1074C159.954 36.7431 156.802 30.3993 149.514 34.1076ZM149.514 34.1076C149.491 34.0188 149.877 33.9264 149.877 33.9264M149.514 34.1076C155.583 42.0876 150.562 45.1867 148.053 46.4717C146.32 40.7543 149.197 36.2425 149.877 33.9264" stroke="#0A0043"/>
<path d="M120.163 35.3505C118.705 33.5676 117.333 33.5676 120.163 28.7283C120.513 28.1309 122.337 25.5642 122.744 24.3616C122.762 24.2084 122.786 24.051 122.815 23.8891C122.84 23.9983 122.811 24.161 122.744 24.3616C122.136 29.3818 127.107 29.8573 122.062 34.299C129.059 30.7796 129.501 34.9809 134.251 35.7412C132.561 37.8314 128.523 39.378 120.536 35.5326C120.531 35.5369 120.525 35.5411 120.519 35.5454C120.519 35.5454 120.519 35.5454 120.519 35.5454C127.275 39.3149 124.624 42.1158 129.763 43.2461C132.053 43.75 118.743 45.5777 120.112 35.6815C120.091 35.6888 120.069 35.6961 120.047 35.7036C116.991 44.9074 113.661 45.6114 111.205 44.3011C111.822 38.7434 117.46 36.5812 120.047 35.7036C120.086 35.5872 120.125 35.4695 120.163 35.3505C108.571 38.3751 106.347 31.2753 107.376 31.2753C120.885 31.2753 113.987 30.8132 120.163 35.3505Z" fill="url(#paint4_radial_2_3379)"/>
<path d="M120.163 35.3505C118.705 33.5676 117.333 33.5676 120.163 28.7283C120.571 28.0313 122.987 24.6532 122.815 23.8891C121.74 29.8152 128.219 29.7471 120.519 35.5454M120.163 35.3505C129.015 30.0528 129.104 34.9173 134.251 35.7412C132.535 37.8637 128.397 39.4257 120.163 35.3505ZM120.163 35.3505C113.987 30.8132 120.885 31.2753 107.376 31.2753C106.347 31.2753 108.571 38.3751 120.163 35.3505ZM120.163 35.3505C118.448 45.618 132.079 43.7555 129.763 43.2461C124.536 42.0964 127.368 39.2182 120.163 35.3505ZM120.163 35.3505C120.223 35.2816 120.519 35.5454 120.519 35.5454M120.163 35.3505C117.075 44.8893 113.692 45.628 111.205 44.3011C111.863 38.3751 118.23 36.3095 120.519 35.5454" stroke="#ABAD8A"/>
<path d="M94.5373 37.6057C96.1751 39.2251 99.2699 39.1287 96.9648 44.2392C96.6631 44.9082 93.5158 47.9146 93.1332 49.0138C93.1271 49.1019 93.1184 49.1915 93.1071 49.2827C93.0842 49.2151 93.0948 49.124 93.1332 49.0138C93.4187 44.8816 88.1083 44.0135 92.8696 38.7526C85.63 43.2571 81.2902 39.6527 79.766 38.1456C81.2259 35.8891 85.7785 34.4642 94.1473 37.4637C94.1524 37.4589 94.1575 37.4542 94.1626 37.4494C94.1626 37.4494 94.1626 37.4494 94.1626 37.4494C87.0477 34.4124 89.3887 31.3478 84.1595 30.765C81.9458 30.5183 96.1889 27.6246 94.9745 35.8661C97.3092 28.0178 102.398 29.6331 104.845 30.6232C101.872 35.3287 97.0728 36.3226 94.6546 37.2459C94.6182 37.364 94.5791 37.4839 94.5373 37.6057C102.323 32.9392 108.706 40.203 107.682 40.3114C94.2489 41.7342 101.156 41.4673 94.5373 37.6057Z" fill="url(#paint5_radial_2_3379)"/>
<path d="M94.5373 37.6057C96.1751 39.2251 99.2699 39.1287 96.9648 44.2392C96.6328 44.9753 92.856 48.5409 93.1071 49.2827C93.6909 44.5859 87.1165 44.0263 94.1626 37.4494M94.5373 37.6057C86.2928 43.8062 81.4038 39.765 79.766 38.1456C81.2484 35.8543 85.9197 34.4204 94.5373 37.6057ZM94.5373 37.6057C101.156 41.4673 94.2489 41.7342 107.682 40.3114C108.706 40.203 102.323 32.9392 94.5373 37.6057ZM94.5373 37.6057C98.0971 27.2399 81.8028 30.5024 84.1595 30.765C89.4784 31.3578 86.9651 34.5183 94.5373 37.6057ZM94.5373 37.6057C94.4846 37.6805 94.1626 37.4494 94.1626 37.4494M94.5373 37.6057C96.6033 27.7947 102.232 29.5657 104.845 30.6232C101.654 35.6738 96.359 36.4484 94.1626 37.4494" stroke="#0A0043"/>
<path d="M63.5675 36.1199C62.1094 34.337 60.7371 34.337 63.5675 29.4977C63.9752 28.8007 64.0952 24.7641 63.9237 24C64.7965 27.2986 70.7761 30.1292 65.2364 35.2288C73.0625 31.5651 77.6081 36.8183 78.972 38.486C77.2825 40.5763 71.9661 40.207 63.9399 36.3026C63.9345 36.3066 63.9291 36.3107 63.9237 36.3148C63.9233 36.3149 63.923 36.315 63.9226 36.3151C70.6754 40.1192 67.9069 43.9402 73.0459 45.0705C75.2385 45.5528 60.6311 46.0026 63.001 37.619C59.5969 45.3749 52.3473 43.0304 50 41.7783C52.6148 38.4711 57.3328 37.4913 60.6881 36.9325C54.4745 37.49 51.7334 29.4977 52.6338 29.4977C66.1424 29.4977 57.3919 31.5826 63.5675 36.1199Z" fill="url(#paint6_radial_2_3379)"/>
<path d="M63.5675 36.1199C62.1094 34.337 60.7371 34.337 63.5675 29.4977C63.9752 28.8007 64.0952 24.7641 63.9237 24C64.8565 27.5256 71.6233 30.5165 63.9237 36.3148M63.5675 36.1199C72.4193 30.8222 77.5138 36.7031 78.972 38.486C77.2565 40.6085 71.8017 40.195 63.5675 36.1199ZM63.5675 36.1199C57.3919 31.5826 66.1424 29.4977 52.6338 29.4977C51.6046 29.4977 55.3334 39.9403 63.5675 36.1199ZM63.5675 36.1199C58.9358 46.0531 75.3617 45.5799 73.0459 45.0705C67.819 43.9208 70.7724 39.9876 63.5675 36.1199ZM63.5675 36.1199C63.6278 36.051 63.9237 36.3148 63.9237 36.3148M63.5675 36.1199C60.4797 45.6587 52.4874 43.1051 50 41.7783C53.7054 37.0918 61.6341 37.0789 63.9237 36.3148" stroke="#43002A"/>
<path d="M34.1678 28.3059C34.3918 26.6583 35.5166 25.1374 39.415 23.3017C40.1455 22.9576 44.049 21.5394 44.3399 20.8123C43.1141 24.2471 45.7643 28.3711 36.135 28.7951L34.1593 29.8406C44.4553 30.4812 47.0562 35.6505 47.2496 37.9456C44.6342 38.725 38.6426 37.8599 34.1593 29.8406C37.9113 37.1064 35.4561 36.7981 39.1152 40.7036C40.6377 42.3287 26.6051 36.2329 32.7082 30.8719C25.8272 35.3351 23.0045 30.7976 21.7867 28.4544C24.4009 27.6448 27.144 27.5088 29.5724 27.6631C25.7981 24.0804 26.7724 17.7145 27.4307 18.1663C37.6228 25.1608 32.6822 23.0712 33.7039 28.21C33.863 28.2417 34.0178 28.2737 34.1678 28.3059Z" fill="url(#paint7_radial_2_3379)"/>
<path d="M34.1593 29.8406C33.9659 27.5455 34.3429 25.6901 39.4149 23.3017C40.1455 22.9576 44.049 21.5394 44.3399 20.8123C43.1141 24.2471 45.7643 28.3711 36.135 28.7951M34.1593 29.8406C44.4553 30.4812 47.0562 35.6505 47.2496 37.9456C44.6342 38.725 38.6426 37.8599 34.1593 29.8406ZM34.1593 29.8406C31.6348 22.6051 38.5687 25.81 27.4307 18.1663C26.5821 17.5839 25.2083 28.3314 34.1593 29.8406ZM34.1593 29.8406C24.7198 35.4098 40.7364 42.4341 39.1152 40.7037C35.4561 36.7981 37.9113 37.1064 34.1593 29.8406ZM34.1593 29.8406L36.135 28.7951M34.1593 29.8406C26.2159 35.9582 23.0868 30.9559 21.7867 28.4544C27.4936 26.687 33.8148 28.1296 36.135 28.7951" stroke="#3F0303"/>
<path d="M446 2C415.01 57.8987 269.203 44.3017 219 2" stroke="#957254"/>
<path d="M431.338 18.1515C431.135 20.4458 430.001 21.2179 435.063 23.6262C435.792 23.9731 439.69 25.4067 439.978 26.1349C438.851 22.9368 440.833 18.8706 433.377 17.9444C441.789 16.6924 442.767 11.1461 442.955 9.01315C440.383 8.23553 435.988 10.092 431.543 17.791C431.536 17.7907 431.529 17.7903 431.522 17.79C431.522 17.79 431.522 17.79 431.522 17.79C434.987 10.873 431.219 10.0487 434.832 6.22318C436.361 4.60372 423.624 11.605 429.879 17.1071C423.024 12.6292 420.186 17.1519 418.96 19.489C424.27 21.1565 428.574 18.8119 431.015 17.9529C431.12 18.0194 431.227 18.0856 431.338 18.1515C422.381 19.6255 422.208 29.2935 423.059 28.7145C434.227 21.1146 428.785 25.377 431.338 18.1515Z" fill="url(#paint8_radial_2_3379)"/>
<path d="M431.338 18.1515C431.135 20.4458 430.001 21.2179 435.063 23.6262C435.792 23.9731 439.69 25.4067 439.978 26.1349C438.766 22.6954 441.15 18.2518 431.522 17.79M431.338 18.1515C441.636 17.5513 442.753 11.3075 442.955 9.01315C440.343 8.22354 435.852 10.1499 431.338 18.1515ZM431.338 18.1515C428.785 25.377 434.227 21.1146 423.059 28.7145C422.208 29.2935 422.381 19.6255 431.338 18.1515ZM431.338 18.1515C421.92 12.5452 436.46 4.49915 434.832 6.22318C431.157 10.1143 435.118 10.9004 431.338 18.1515ZM431.338 18.1515C431.426 18.1745 431.522 17.79 431.522 17.79M431.338 18.1515C423.418 12.0026 420.269 16.9926 418.96 19.489C424.659 21.2788 429.2 18.4464 431.522 17.79" stroke="#0A0043"/>
<path d="M239.616 15.6233C239.568 17.926 238.488 18.7727 243.702 20.8351C244.452 21.1322 248.438 22.3004 248.774 23.0076C247.435 19.8925 249.138 15.7022 241.638 15.2795C249.945 13.4646 250.549 7.86507 250.593 5.72433C247.974 5.12149 243.714 7.26928 239.797 15.2498C239.79 15.2499 239.783 15.2501 239.776 15.2502C239.776 15.2502 239.776 15.2502 239.776 15.2502C242.767 8.11591 238.953 7.54683 242.3 3.48702C243.717 1.76838 231.48 9.6104 238.091 14.6793C230.95 10.6727 228.423 15.376 227.356 17.7903C232.767 19.0968 236.903 16.4681 239.281 15.4468C239.39 15.5062 239.501 15.565 239.616 15.6233C230.779 17.6964 231.257 27.3541 232.067 26.7192C242.698 18.3854 237.555 23.0041 239.616 15.6233Z" fill="url(#paint9_radial_2_3379)"/>
<path d="M239.616 15.6233C239.568 17.926 238.488 18.7727 243.702 20.8351C244.452 21.1322 248.438 22.3004 248.774 23.0076C247.333 19.6573 249.413 15.0635 239.776 15.2502M239.616 15.6233C249.851 14.3319 250.545 8.02706 250.593 5.72433C247.934 5.1122 243.583 7.3362 239.616 15.6233ZM239.616 15.6233C237.555 23.0041 242.698 18.3854 232.067 26.7192C231.257 27.3541 230.779 17.6964 239.616 15.6233ZM239.616 15.6233C229.843 10.6631 243.809 1.6574 242.3 3.48702C238.896 7.61649 242.9 8.13441 239.616 15.6233ZM239.616 15.6233C239.706 15.6403 239.776 15.2502 239.776 15.2502M239.616 15.6233C231.301 10.021 228.495 15.2115 227.356 17.7903C233.164 19.1927 237.503 16.0613 239.776 15.2502" stroke="#430034"/>
<path d="M290.088 33.4368C291.546 31.6539 292.918 31.6539 290.088 26.8146C289.68 26.1176 290.314 20.7641 290.486 20C289.609 23.313 282.915 27.3168 288.5 32.5989C280.777 29.0894 277.368 36.1058 276 37.7783C277.69 39.8686 281.729 37.5832 289.717 33.6206C289.722 33.6243 289.726 33.628 289.731 33.6317C289.731 33.6317 289.731 33.6317 289.731 33.6317C282.976 37.4012 285.627 40.2021 280.488 41.3324C278.299 41.814 292.968 43.2061 290.664 34.9642C294.135 42.9365 301.967 42.5841 304.314 41.3324C300.847 36.9476 293.106 34.6955 290.249 33.7979C290.198 33.6793 290.144 33.5589 290.088 33.4368C298.322 37.2573 303.904 29.3616 302.875 29.3616C289.366 29.3616 296.263 28.8995 290.088 33.4368Z" fill="url(#paint10_radial_2_3379)"/>
<path d="M290.088 33.4368C291.546 31.6539 292.918 31.6539 290.088 26.8146C289.68 26.1176 290.314 20.7641 290.486 20C289.553 23.5256 282.032 27.8334 289.731 33.6317M290.088 33.4368C281.236 28.1391 277.458 35.9954 276 37.7783C277.715 39.9007 281.853 37.5119 290.088 33.4368ZM290.088 33.4368C296.263 28.8995 289.366 29.3616 302.875 29.3616C303.904 29.3616 298.322 37.2573 290.088 33.4368ZM290.088 33.4368C294.719 43.37 278.172 41.8418 280.488 41.3324C285.715 40.1827 282.883 37.3045 290.088 33.4368ZM290.088 33.4368C290.027 33.3679 289.731 33.6317 289.731 33.6317M290.088 33.4368C293.175 42.9756 301.826 42.6593 304.314 41.3324C300.608 36.646 292.021 34.3958 289.731 33.6317" stroke="#3A0043"/>
<path d="M403.698 30.6925C405.995 30.8721 406.778 31.999 409.136 26.9127C409.476 26.1801 412.968 22.0861 413.694 21.7909C410.493 22.9548 404.555 21.1499 403.486 28.7517C402.178 20.2635 396.588 19.3337 394.445 19.166C393.693 21.7462 395.593 26.122 403.336 30.4904C403.336 30.4973 403.335 30.5043 403.335 30.5113C403.336 30.5125 403.336 30.5136 403.336 30.5148C396.305 27.1936 393.193 33.2671 389.331 29.6923C387.693 28.176 396.985 38.7948 402.68 32.144C398.252 39.0559 402.808 41.8525 405.159 43.0566C406.774 37.7296 404.386 33.4492 403.503 31.0162C403.569 30.9112 403.634 30.8033 403.698 30.6925C405.261 39.6342 416.915 35.8051 416.328 34.96C408.617 23.868 410.949 33.1735 403.698 30.6925Z" fill="url(#paint11_radial_2_3379)"/>
<path d="M403.698 30.6925C405.995 30.8721 406.778 31.999 409.136 26.9127C409.476 26.1801 412.968 22.0861 413.694 21.7909C410.266 23.0372 403.701 20.8796 403.335 30.5113M403.698 30.6925C402.996 20.4005 396.741 19.3457 394.445 19.166C393.682 21.786 395.652 26.2574 403.698 30.6925ZM403.698 30.6925C410.949 33.1735 408.617 23.868 416.328 34.96C416.915 35.8051 405.261 39.6342 403.698 30.6925ZM403.698 30.6925C398.186 40.1653 387.591 28.0815 389.331 29.6923C393.258 33.3279 396.41 26.9842 403.698 30.6925ZM403.698 30.6925C403.721 30.6037 403.335 30.5113 403.335 30.5113M403.698 30.6925C397.629 38.6725 402.65 41.7715 405.159 43.0566C406.892 37.3392 404.015 32.8274 403.335 30.5113" stroke="#0A0043"/>
<path d="M263.088 23.4614C264.546 21.6785 265.918 21.6785 263.088 16.8393C262.738 16.2419 260.914 13.6752 260.507 12.4725C260.489 12.3193 260.465 12.1619 260.435 12C260.411 12.1092 260.439 12.2719 260.507 12.4725C261.115 17.4927 256.143 17.9682 261.188 22.4099C254.192 18.8905 253.749 23.0919 249 23.8522C250.689 25.9424 254.728 27.4889 262.715 23.6436C262.72 23.6478 262.726 23.652 262.731 23.6563C262.731 23.6563 262.731 23.6563 262.731 23.6563C255.976 27.4258 258.627 30.2267 253.488 31.357C251.197 31.8609 264.508 33.6886 263.138 23.7925C263.16 23.7997 263.181 23.8071 263.203 23.8145C266.26 33.0183 269.59 33.7224 272.046 32.4121C271.428 26.8544 265.79 24.6921 263.203 23.8145C263.165 23.6982 263.126 23.5805 263.088 23.4614C274.68 26.486 276.904 19.3863 275.875 19.3863C262.366 19.3863 269.263 18.9241 263.088 23.4614Z" fill="url(#paint12_radial_2_3379)"/>
<path d="M263.088 23.4614C264.546 21.6785 265.918 21.6785 263.088 16.8393C262.68 16.1422 260.264 12.7641 260.435 12C261.511 17.9261 255.032 17.8581 262.731 23.6563M263.088 23.4614C254.236 18.1637 254.146 23.0283 249 23.8522C250.715 25.9747 254.853 27.5366 263.088 23.4614ZM263.088 23.4614C269.263 18.9241 262.366 19.3863 275.875 19.3863C276.904 19.3863 274.68 26.486 263.088 23.4614ZM263.088 23.4614C264.803 33.729 251.172 31.8664 253.488 31.357C258.715 30.2073 255.883 27.3292 263.088 23.4614ZM263.088 23.4614C263.027 23.3926 262.731 23.6563 262.731 23.6563M263.088 23.4614C266.175 33.0002 269.559 33.7389 272.046 32.4121C271.387 26.486 265.021 24.4204 262.731 23.6563" stroke="#ABAD8A"/>
<path d="M346.175 37.9843C347.633 36.2014 350.721 35.9714 347.89 31.1321C347.52 30.4985 344.073 27.8404 343.577 26.7875C343.562 26.7005 343.544 26.6124 343.523 26.5229C343.507 26.5925 343.527 26.682 343.577 26.7875C344.296 30.8667 339.107 32.2893 344.396 37.0194C336.722 33.3025 332.786 37.3439 331.429 39.0031C333.118 41.0933 337.796 42.0308 345.802 38.1666C345.808 38.1708 345.813 38.175 345.819 38.1792C345.819 38.1792 345.819 38.1792 345.819 38.1792C339.063 41.9487 341.714 44.7496 336.575 45.8799C334.4 46.3584 348.869 47.7359 346.793 39.6682C349.941 47.227 354.832 45.0846 357.161 43.8424C353.709 39.4762 348.832 38.9932 346.33 38.3297C346.281 38.2162 346.229 38.101 346.175 37.9843C354.409 41.8048 359.991 33.9092 358.962 33.9092C345.453 33.9092 352.351 33.4471 346.175 37.9843Z" fill="url(#paint13_radial_2_3379)"/>
<path d="M346.175 37.9843C347.633 36.2014 350.721 35.9714 347.89 31.1321C347.483 30.435 343.351 27.287 343.523 26.5229C344.598 31.1321 338.119 32.381 345.819 38.1792M346.175 37.9843C337.323 32.6866 332.887 37.2202 331.429 39.0031C333.144 41.1256 337.941 42.0595 346.175 37.9843ZM346.175 37.9843C352.351 33.4471 345.453 33.9092 358.962 33.9092C359.991 33.9092 354.409 41.8048 346.175 37.9843ZM346.175 37.9843C350.807 47.9175 334.26 46.3893 336.575 45.8799C341.802 44.7302 338.97 41.8521 346.175 37.9843ZM346.175 37.9843C346.115 37.9155 345.819 38.1792 345.819 38.1792M346.175 37.9843C349.263 47.5231 354.673 45.1692 357.161 43.8424C353.455 39.1559 348.108 38.9433 345.819 38.1792" stroke="#0A0043"/>
<path d="M317.404 37.1199C318.863 35.337 320.235 35.337 317.404 30.4977C316.997 29.8007 316.877 25.7641 317.048 25C316.175 28.2986 310.196 31.1292 315.736 36.2288C307.91 32.5651 303.364 37.8183 302 39.486C303.689 41.5763 309.006 41.207 317.032 37.3026C317.038 37.3066 317.043 37.3107 317.048 37.3148C317.049 37.3149 317.049 37.315 317.049 37.3151C310.297 41.1192 313.065 44.9402 307.926 46.0705C305.733 46.5528 320.341 47.0026 317.971 38.619C321.375 46.3749 328.625 44.0304 330.972 42.7783C328.357 39.4711 323.639 38.4913 320.284 37.9325C326.497 38.49 329.239 30.4977 328.338 30.4977C314.83 30.4977 323.58 32.5826 317.404 37.1199Z" fill="url(#paint14_radial_2_3379)"/>
<path d="M317.404 37.1199C318.863 35.337 320.235 35.337 317.404 30.4977C316.997 29.8007 316.877 25.7641 317.048 25C316.115 28.5256 309.349 31.5165 317.048 37.3148M317.404 37.1199C308.553 31.8222 303.458 37.7031 302 39.486C303.715 41.6085 309.17 41.195 317.404 37.1199ZM317.404 37.1199C323.58 32.5826 314.83 30.4977 328.338 30.4977C329.367 30.4977 325.639 40.9403 317.404 37.1199ZM317.404 37.1199C322.036 47.0531 305.61 46.5799 307.926 46.0705C313.153 44.9208 310.2 40.9876 317.404 37.1199ZM317.404 37.1199C317.344 37.051 317.048 37.3148 317.048 37.3148M317.404 37.1199C320.492 46.6587 328.485 44.1051 330.972 42.7783C327.267 38.0918 319.338 38.0789 317.048 37.3148" stroke="#43002A"/>
<path d="M371.144 37.3059C370.92 35.6583 369.795 34.1374 365.897 32.3017C365.166 31.9576 361.262 30.5394 360.972 29.8123C362.197 33.2471 359.547 37.3711 369.177 37.7951L371.152 38.8406C360.856 39.4812 358.255 44.6505 358.062 46.9456C360.677 47.725 366.669 46.8599 371.152 38.8406C367.4 46.1064 369.855 45.7981 366.196 49.7036C364.674 51.3287 378.706 45.2329 372.603 39.8719C379.484 44.3351 382.307 39.7976 383.525 37.4544C380.911 36.6448 378.167 36.5088 375.739 36.6631C379.513 33.0804 378.539 26.7145 377.881 27.1663C367.689 34.1608 372.629 32.0712 371.608 37.21C371.448 37.2417 371.294 37.2737 371.144 37.3059Z" fill="url(#paint15_radial_2_3379)"/>
<path d="M371.152 38.8406C371.346 36.5455 370.969 34.6901 365.897 32.3017C365.166 31.9576 361.262 30.5394 360.972 29.8123C362.197 33.2471 359.547 37.3711 369.177 37.7951M371.152 38.8406C360.856 39.4812 358.255 44.6505 358.062 46.9456C360.677 47.725 366.669 46.8599 371.152 38.8406ZM371.152 38.8406C373.677 31.6051 366.743 34.81 377.881 27.1663C378.729 26.5839 380.103 37.3314 371.152 38.8406ZM371.152 38.8406C380.592 44.4098 364.575 51.4341 366.196 49.7037C369.855 45.7981 367.4 46.1064 371.152 38.8406ZM371.152 38.8406L369.177 37.7951M371.152 38.8406C379.096 44.9582 382.225 39.9559 383.525 37.4544C377.818 35.687 371.497 37.1296 369.177 37.7951" stroke="#3F0303"/>
<defs>
<radialGradient id="paint0_radial_2_3379" cx="0" cy="0" r="1" gradientUnits="userSpaceOnUse" gradientTransform="translate(12.4077 17.1663) rotate(-55.7643) scale(11.1618 14.8434)">
<stop offset="0.215" stop-color="#0B0069"/>
<stop offset="1" stop-color="#46C9ED"/>
</radialGradient>
<radialGradient id="paint1_radial_2_3379" cx="0" cy="0" r="1" gradientUnits="userSpaceOnUse" gradientTransform="translate(200.119 16.1197) rotate(128.092) scale(11.1618 14.8434)">
<stop offset="0.325" stop-color="#8E0045"/>
<stop offset="0.785" stop-color="#FFA0BE"/>
</radialGradient>
<radialGradient id="paint2_radial_2_3379" cx="0" cy="0" r="1" gradientUnits="userSpaceOnUse" gradientTransform="translate(176.315 24.8957) rotate(90) scale(11.1618 14.8434)">
<stop offset="0.215" stop-color="#330146"/>
<stop offset="1" stop-color="#F68DFF"/>
</radialGradient>
<radialGradient id="paint3_radial_2_3379" cx="0" cy="0" r="1" gradientUnits="userSpaceOnUse" gradientTransform="translate(149.003 33.8712) rotate(34.8045) scale(11.1618 14.8434)">
<stop offset="0.215" stop-color="#003686"/>
<stop offset="1" stop-color="#46EDED"/>
</radialGradient>
<radialGradient id="paint4_radial_2_3379" cx="0" cy="0" r="1" gradientUnits="userSpaceOnUse" gradientTransform="translate(120.066 34.7961) rotate(90) scale(11.1618 14.8434)">
<stop offset="0.215" stop-color="#C8CDA0"/>
<stop offset="1" stop-color="#DFECEF"/>
</radialGradient>
<radialGradient id="paint5_radial_2_3379" cx="0" cy="0" r="1" gradientUnits="userSpaceOnUse" gradientTransform="translate(94.6926 38.1467) rotate(-96.0457) scale(11.1618 14.8434)">
<stop offset="0.215" stop-color="#0B0069"/>
<stop offset="1" stop-color="#46C9ED"/>
</radialGradient>
<radialGradient id="paint6_radial_2_3379" cx="0" cy="0" r="1" gradientUnits="userSpaceOnUse" gradientTransform="translate(63.4701 35.5655) rotate(90) scale(11.1618 14.8434)">
<stop offset="0.215" stop-color="#8F0145"/>
<stop offset="1" stop-color="#FFA0BE"/>
</radialGradient>
<radialGradient id="paint7_radial_2_3379" cx="0" cy="0" r="1" gradientUnits="userSpaceOnUse" gradientTransform="translate(35.9009 28.2493) rotate(124.461) scale(11.1618 14.8434)">
<stop offset="0.215" stop-color="#660404"/>
<stop offset="1" stop-color="#D00E11"/>
</radialGradient>
<radialGradient id="paint8_radial_2_3379" cx="0" cy="0" r="1" gradientUnits="userSpaceOnUse" gradientTransform="translate(431.569 18.6646) rotate(-124.236) scale(11.1618 14.8434)">
<stop offset="0.215" stop-color="#0B0069"/>
<stop offset="1" stop-color="#46C9ED"/>
</radialGradient>
<radialGradient id="paint9_radial_2_3379" cx="0" cy="0" r="1" gradientUnits="userSpaceOnUse" gradientTransform="translate(239.881 16.1197) rotate(51.908) scale(11.1618 14.8434)">
<stop offset="0.325" stop-color="#8E0045"/>
<stop offset="0.785" stop-color="#FFA0BE"/>
</radialGradient>
<radialGradient id="paint10_radial_2_3379" cx="0" cy="0" r="1" gradientUnits="userSpaceOnUse" gradientTransform="translate(290.185 32.8824) rotate(90) scale(11.1618 14.8434)">
<stop offset="0.215" stop-color="#330146"/>
<stop offset="1" stop-color="#F68DFF"/>
</radialGradient>
<radialGradient id="paint11_radial_2_3379" cx="0" cy="0" r="1" gradientUnits="userSpaceOnUse" gradientTransform="translate(404.209 30.456) rotate(145.196) scale(11.1618 14.8434)">
<stop offset="0.215" stop-color="#003686"/>
<stop offset="1" stop-color="#46EDED"/>
</radialGradient>
<radialGradient id="paint12_radial_2_3379" cx="0" cy="0" r="1" gradientUnits="userSpaceOnUse" gradientTransform="translate(263.185 22.9071) rotate(90) scale(11.1618 14.8434)">
<stop offset="0.215" stop-color="#C8CDA0"/>
<stop offset="1" stop-color="#DFECEF"/>
</radialGradient>
<radialGradient id="paint13_radial_2_3379" cx="0" cy="0" r="1" gradientUnits="userSpaceOnUse" gradientTransform="translate(346.272 37.43) rotate(90) scale(11.1618 14.8434)">
<stop offset="0.215" stop-color="#0B0069"/>
<stop offset="1" stop-color="#46C9ED"/>
</radialGradient>
<radialGradient id="paint14_radial_2_3379" cx="0" cy="0" r="1" gradientUnits="userSpaceOnUse" gradientTransform="translate(317.502 36.5655) rotate(90) scale(11.1618 14.8434)">
<stop offset="0.215" stop-color="#8F0145"/>
<stop offset="1" stop-color="#FFA0BE"/>
</radialGradient>
<radialGradient id="paint15_radial_2_3379" cx="0" cy="0" r="1" gradientUnits="userSpaceOnUse" gradientTransform="translate(369.411 37.2493) rotate(55.5391) scale(11.1618 14.8434)">
<stop offset="0.215" stop-color="#660404"/>
<stop offset="1" stop-color="#D00E11"/>
</radialGradient>
</defs>
</svg>
