<svg width="156" height="85" viewBox="0 0 156 85" fill="none" xmlns="http://www.w3.org/2000/svg">
<g opacity="0.26">
<circle cx="6.5" cy="33.5" r="0.5" fill="#FF0000"/>
<circle cx="7.5" cy="41.5" r="0.5" fill="#FF00C8"/>
<circle cx="13.5" cy="36.5" r="0.5" fill="#FFF700"/>
<circle cx="13.5" cy="47.5" r="0.5" fill="#00AAFF"/>
<circle cx="9.5" cy="45.5" r="0.5" transform="rotate(-180 9.5 45.5)" fill="#FF0000"/>
<circle cx="8.5" cy="37.5" r="0.5" transform="rotate(-180 8.5 37.5)" fill="#9900FF"/>
<circle cx="2.5" cy="42.5" r="0.5" transform="rotate(-180 2.5 42.5)" fill="#FFF700"/>
<circle cx="2.5" cy="31.5" r="0.5" transform="rotate(-180 2.5 31.5)" fill="#00AAFF"/>
<circle cx="7.5" cy="39.5" r="0.5" fill="#FF0000"/>
<circle cx="8.5" cy="47.5" r="0.5" fill="#FF00C8"/>
<circle cx="14.5" cy="42.5" r="0.5" fill="#FFF700"/>
<circle cx="14.5" cy="53.5" r="0.5" fill="#00AAFF"/>
<circle cx="10.5" cy="51.5" r="0.5" transform="rotate(-180 10.5 51.5)" fill="#FF0000"/>
<circle cx="9.5" cy="43.5" r="0.5" transform="rotate(-180 9.5 43.5)" fill="#9900FF"/>
<circle cx="3.5" cy="48.5" r="0.5" transform="rotate(-180 3.5 48.5)" fill="#FFF700"/>
<circle cx="3.5" cy="37.5" r="0.5" transform="rotate(-180 3.5 37.5)" fill="#00AAFF"/>
<circle cx="7.5" cy="16.5" r="0.5" fill="#FF0000"/>
<circle cx="8.5" cy="24.5" r="0.5" fill="#FF00C8"/>
<circle cx="14.5" cy="19.5" r="0.5" fill="#FFF700"/>
<circle cx="14.5" cy="30.5" r="0.5" fill="#00AAFF"/>
<circle cx="10.5" cy="28.5" r="0.5" transform="rotate(-180 10.5 28.5)" fill="#FF0000"/>
<circle cx="9.5" cy="20.5" r="0.5" transform="rotate(-180 9.5 20.5)" fill="#9900FF"/>
<circle cx="3.5" cy="25.5" r="0.5" transform="rotate(-180 3.5 25.5)" fill="#FFF700"/>
<circle cx="3.5" cy="14.5" r="0.5" transform="rotate(-180 3.5 14.5)" fill="#00AAFF"/>
<circle cx="8.5" cy="22.5" r="0.5" fill="#FF0000"/>
<circle cx="9.5" cy="30.5" r="0.5" fill="#FF00C8"/>
<circle cx="15.5" cy="25.5" r="0.5" fill="#FFF700"/>
<circle cx="15.5" cy="36.5" r="0.5" fill="#00AAFF"/>
<circle cx="11.5" cy="34.5" r="0.5" transform="rotate(-180 11.5 34.5)" fill="#FF0000"/>
<circle cx="10.5" cy="26.5" r="0.5" transform="rotate(-180 10.5 26.5)" fill="#9900FF"/>
<circle cx="4.5" cy="31.5" r="0.5" transform="rotate(-180 4.5 31.5)" fill="#FFF700"/>
<circle cx="4.5" cy="20.5" r="0.5" transform="rotate(-180 4.5 20.5)" fill="#00AAFF"/>
<circle cx="19.5" cy="48.5" r="0.5" fill="#FF0000"/>
<circle cx="20.5" cy="56.5" r="0.5" fill="#FF00C8"/>
<circle cx="26.5" cy="51.5" r="0.5" fill="#FFF700"/>
<circle cx="26.5" cy="62.5" r="0.5" fill="#00AAFF"/>
<circle cx="22.5" cy="60.5" r="0.5" transform="rotate(-180 22.5 60.5)" fill="#FF0000"/>
<circle cx="21.5" cy="52.5" r="0.5" transform="rotate(-180 21.5 52.5)" fill="#9900FF"/>
<circle cx="15.5" cy="57.5" r="0.5" transform="rotate(-180 15.5 57.5)" fill="#FFF700"/>
<circle cx="15.5" cy="46.5" r="0.5" transform="rotate(-180 15.5 46.5)" fill="#00AAFF"/>
<circle cx="20.5" cy="54.5" r="0.5" fill="#FF0000"/>
<circle cx="21.5" cy="62.5" r="0.5" fill="#FF00C8"/>
<circle cx="27.5" cy="57.5" r="0.5" fill="#FFF700"/>
<circle cx="27.5" cy="68.5" r="0.5" fill="#00AAFF"/>
<circle cx="23.5" cy="66.5" r="0.5" transform="rotate(-180 23.5 66.5)" fill="#FF0000"/>
<circle cx="22.5" cy="58.5" r="0.5" transform="rotate(-180 22.5 58.5)" fill="#9900FF"/>
<circle cx="16.5" cy="63.5" r="0.5" transform="rotate(-180 16.5 63.5)" fill="#FFF700"/>
<circle cx="16.5" cy="52.5" r="0.5" transform="rotate(-180 16.5 52.5)" fill="#00AAFF"/>
<circle cx="0.5" cy="0.5" r="0.5" transform="matrix(1 0 0 -1 21 53)" fill="#FF0000"/>
<circle cx="0.5" cy="0.5" r="0.5" transform="matrix(1 0 0 -1 22 45)" fill="#FF00C8"/>
<circle cx="0.5" cy="0.5" r="0.5" transform="matrix(1 0 0 -1 28 50)" fill="#FFF700"/>
<circle cx="0.5" cy="0.5" r="0.5" transform="matrix(1 0 0 -1 28 39)" fill="#00AAFF"/>
<circle cx="0.5" cy="0.5" r="0.5" transform="matrix(-1 0 0 1 25 40)" fill="#FF0000"/>
<circle cx="0.5" cy="0.5" r="0.5" transform="matrix(-1 0 0 1 24 48)" fill="#9900FF"/>
<circle cx="0.5" cy="0.5" r="0.5" transform="matrix(-1 0 0 1 18 43)" fill="#FFF700"/>
<circle cx="0.5" cy="0.5" r="0.5" transform="matrix(-1 0 0 1 18 54)" fill="#00AAFF"/>
<circle cx="0.5" cy="0.5" r="0.5" transform="matrix(1 0 0 -1 22 47)" fill="#FF0000"/>
<circle cx="0.5" cy="0.5" r="0.5" transform="matrix(1 0 0 -1 23 39)" fill="#FF00C8"/>
<circle cx="0.5" cy="0.5" r="0.5" transform="matrix(1 0 0 -1 29 44)" fill="#FFF700"/>
<circle cx="0.5" cy="0.5" r="0.5" transform="matrix(1 0 0 -1 29 33)" fill="#00AAFF"/>
<circle cx="0.5" cy="0.5" r="0.5" transform="matrix(-1 0 0 1 26 34)" fill="#FF0000"/>
<circle cx="0.5" cy="0.5" r="0.5" transform="matrix(-1 0 0 1 25 42)" fill="#9900FF"/>
<circle cx="0.5" cy="0.5" r="0.5" transform="matrix(-1 0 0 1 19 37)" fill="#FFF700"/>
<circle cx="0.5" cy="0.5" r="0.5" transform="matrix(-1 0 0 1 19 48)" fill="#00AAFF"/>
<circle cx="0.5" cy="0.5" r="0.5" transform="matrix(-1 0 0 1 18 18)" fill="#FF0000"/>
<circle cx="0.5" cy="0.5" r="0.5" transform="matrix(-1 0 0 1 17 26)" fill="#FF00C8"/>
<circle cx="0.5" cy="0.5" r="0.5" transform="matrix(-1 0 0 1 11 21)" fill="#FFF700"/>
<circle cx="0.5" cy="0.5" r="0.5" transform="matrix(-1 0 0 1 11 32)" fill="#00AAFF"/>
<circle cx="0.5" cy="0.5" r="0.5" transform="matrix(1 0 0 -1 14 31)" fill="#FF0000"/>
<circle cx="0.5" cy="0.5" r="0.5" transform="matrix(1 0 0 -1 15 23)" fill="#9900FF"/>
<circle cx="0.5" cy="0.5" r="0.5" transform="matrix(1 0 0 -1 21 28)" fill="#FFF700"/>
<circle cx="0.5" cy="0.5" r="0.5" transform="matrix(1 0 0 -1 21 17)" fill="#00AAFF"/>
<circle cx="0.5" cy="0.5" r="0.5" transform="matrix(-1 0 0 1 17 24)" fill="#FF0000"/>
<circle cx="0.5" cy="0.5" r="0.5" transform="matrix(-1 0 0 1 16 32)" fill="#FF00C8"/>
<circle cx="0.5" cy="0.5" r="0.5" transform="matrix(-1 0 0 1 10 27)" fill="#FFF700"/>
<circle cx="0.5" cy="0.5" r="0.5" transform="matrix(-1 0 0 1 10 38)" fill="#00AAFF"/>
<circle cx="0.5" cy="0.5" r="0.5" transform="matrix(1 0 0 -1 13 37)" fill="#FF0000"/>
<circle cx="0.5" cy="0.5" r="0.5" transform="matrix(1 0 0 -1 14 29)" fill="#9900FF"/>
<circle cx="0.5" cy="0.5" r="0.5" transform="matrix(1 0 0 -1 20 34)" fill="#FFF700"/>
<circle cx="0.5" cy="0.5" r="0.5" transform="matrix(1 0 0 -1 20 23)" fill="#00AAFF"/>
<circle cx="8.5" cy="49.5" r="0.5" transform="rotate(180 8.5 49.5)" fill="#FF0000"/>
<circle cx="7.5" cy="41.5" r="0.5" transform="rotate(180 7.5 41.5)" fill="#FF00C8"/>
<circle cx="1.5" cy="46.5" r="0.5" transform="rotate(180 1.5 46.5)" fill="#E1FF00"/>
<circle cx="1.5" cy="35.5" r="0.5" transform="rotate(180 1.5 35.5)" fill="#00FFC4"/>
<circle cx="5.5" cy="37.5" r="0.5" fill="#FF0000"/>
<circle cx="6.5" cy="45.5" r="0.5" fill="#FFA0BE"/>
<circle cx="12.5" cy="40.5" r="0.5" fill="#E1FF00"/>
<circle cx="12.5" cy="51.5" r="0.5" fill="#00FFC4"/>
<circle cx="7.5" cy="43.5" r="0.5" transform="rotate(180 7.5 43.5)" fill="#FF0000"/>
<circle cx="6.5" cy="35.5" r="0.5" transform="rotate(180 6.5 35.5)" fill="#FF00C8"/>
<circle cx="0.5" cy="40.5" r="0.5" transform="rotate(180 0.5 40.5)" fill="#E1FF00"/>
<circle cx="0.5" cy="29.5" r="0.5" transform="rotate(180 0.5 29.5)" fill="#00FFC4"/>
<circle cx="4.5" cy="31.5" r="0.5" fill="#FF0000"/>
<circle cx="5.5" cy="39.5" r="0.5" fill="#FFA0BE"/>
<circle cx="11.5" cy="34.5" r="0.5" fill="#E1FF00"/>
<circle cx="11.5" cy="45.5" r="0.5" fill="#00FFC4"/>
<circle cx="12.5" cy="15.5" r="0.5" fill="#FF0000"/>
<circle cx="13.5" cy="23.5" r="0.5" fill="#FF00C8"/>
<circle cx="19.5" cy="18.5" r="0.5" fill="#E1FF00"/>
<circle cx="19.5" cy="29.5" r="0.5" fill="#00FFC4"/>
<circle cx="15.5" cy="27.5" r="0.5" transform="rotate(-180 15.5 27.5)" fill="#FF0000"/>
<circle cx="14.5" cy="19.5" r="0.5" transform="rotate(-180 14.5 19.5)" fill="#FFA0BE"/>
<circle cx="8.5" cy="24.5" r="0.5" transform="rotate(-180 8.5 24.5)" fill="#E1FF00"/>
<circle cx="8.5" cy="13.5" r="0.5" transform="rotate(-180 8.5 13.5)" fill="#00FFC4"/>
<circle cx="13.5" cy="21.5" r="0.5" fill="#FF0000"/>
<circle cx="14.5" cy="29.5" r="0.5" fill="#FF00C8"/>
<circle cx="20.5" cy="24.5" r="0.5" fill="#E1FF00"/>
<circle cx="20.5" cy="35.5" r="0.5" fill="#00FFC4"/>
<circle cx="16.5" cy="33.5" r="0.5" transform="rotate(-180 16.5 33.5)" fill="#FF0000"/>
<circle cx="15.5" cy="25.5" r="0.5" transform="rotate(-180 15.5 25.5)" fill="#FFA0BE"/>
<circle cx="9.5" cy="30.5" r="0.5" transform="rotate(-180 9.5 30.5)" fill="#E1FF00"/>
<circle cx="9.5" cy="19.5" r="0.5" transform="rotate(-180 9.5 19.5)" fill="#00FFC4"/>
<circle cx="0.5" cy="0.5" r="0.5" transform="matrix(-1 0 0 1 24 30)" fill="#FF0000"/>
<circle cx="0.5" cy="0.5" r="0.5" transform="matrix(-1 0 0 1 23 38)" fill="#FF00C8"/>
<circle cx="0.5" cy="0.5" r="0.5" transform="matrix(-1 0 0 1 17 33)" fill="#E1FF00"/>
<circle cx="0.5" cy="0.5" r="0.5" transform="matrix(-1 0 0 1 17 44)" fill="#00FFC4"/>
<circle cx="0.5" cy="0.5" r="0.5" transform="matrix(1 0 0 -1 20 43)" fill="#FF0000"/>
<circle cx="0.5" cy="0.5" r="0.5" transform="matrix(1 0 0 -1 21 35)" fill="#FFA0BE"/>
<circle cx="0.5" cy="0.5" r="0.5" transform="matrix(1 0 0 -1 27 40)" fill="#E1FF00"/>
<circle cx="0.5" cy="0.5" r="0.5" transform="matrix(1 0 0 -1 27 29)" fill="#00FFC4"/>
<circle cx="0.5" cy="0.5" r="0.5" transform="matrix(-1 0 0 1 23 36)" fill="#FF0000"/>
<circle cx="0.5" cy="0.5" r="0.5" transform="matrix(-1 0 0 1 22 44)" fill="#FF00C8"/>
<circle cx="0.5" cy="0.5" r="0.5" transform="matrix(-1 0 0 1 16 39)" fill="#E1FF00"/>
<circle cx="0.5" cy="0.5" r="0.5" transform="matrix(-1 0 0 1 16 50)" fill="#00FFC4"/>
<circle cx="0.5" cy="0.5" r="0.5" transform="matrix(1 0 0 -1 19 49)" fill="#FF0000"/>
<circle cx="0.5" cy="0.5" r="0.5" transform="matrix(1 0 0 -1 20 41)" fill="#FFA0BE"/>
<circle cx="0.5" cy="0.5" r="0.5" transform="matrix(1 0 0 -1 26 46)" fill="#E1FF00"/>
<circle cx="0.5" cy="0.5" r="0.5" transform="matrix(1 0 0 -1 26 35)" fill="#00FFC4"/>
<circle cx="0.5" cy="0.5" r="0.5" transform="matrix(-1 0 0 1 46 44)" fill="#FF0000"/>
<circle cx="0.5" cy="0.5" r="0.5" transform="matrix(-1 0 0 1 45 52)" fill="#FF00C8"/>
<circle cx="0.5" cy="0.5" r="0.5" transform="matrix(-1 0 0 1 39 47)" fill="#FFF700"/>
<circle cx="0.5" cy="0.5" r="0.5" transform="matrix(-1 0 0 1 39 58)" fill="#00AAFF"/>
<circle cx="0.5" cy="0.5" r="0.5" transform="matrix(1 0 0 -1 42 57)" fill="#FF0000"/>
<circle cx="0.5" cy="0.5" r="0.5" transform="matrix(1 0 0 -1 43 49)" fill="#9900FF"/>
<circle cx="0.5" cy="0.5" r="0.5" transform="matrix(1 0 0 -1 49 54)" fill="#FFF700"/>
<circle cx="0.5" cy="0.5" r="0.5" transform="matrix(1 0 0 -1 49 43)" fill="#00AAFF"/>
<circle cx="0.5" cy="0.5" r="0.5" transform="matrix(-1 0 0 1 45 50)" fill="#FF0000"/>
<circle cx="0.5" cy="0.5" r="0.5" transform="matrix(-1 0 0 1 44 58)" fill="#FF00C8"/>
<circle cx="0.5" cy="0.5" r="0.5" transform="matrix(-1 0 0 1 38 53)" fill="#FFF700"/>
<circle cx="0.5" cy="0.5" r="0.5" transform="matrix(-1 0 0 1 38 64)" fill="#00AAFF"/>
<circle cx="0.5" cy="0.5" r="0.5" transform="matrix(1 0 0 -1 41 63)" fill="#FF0000"/>
<circle cx="0.5" cy="0.5" r="0.5" transform="matrix(1 0 0 -1 42 55)" fill="#9900FF"/>
<circle cx="0.5" cy="0.5" r="0.5" transform="matrix(1 0 0 -1 48 60)" fill="#FFF700"/>
<circle cx="0.5" cy="0.5" r="0.5" transform="matrix(1 0 0 -1 48 49)" fill="#00AAFF"/>
<circle cx="35.5" cy="46.5" r="0.5" fill="#FF0000"/>
<circle cx="36.5" cy="54.5" r="0.5" fill="#FF00C8"/>
<circle cx="42.5" cy="49.5" r="0.5" fill="#FFF700"/>
<circle cx="42.5" cy="60.5" r="0.5" fill="#00AAFF"/>
<circle cx="38.5" cy="58.5" r="0.5" transform="rotate(-180 38.5 58.5)" fill="#FF0000"/>
<circle cx="37.5" cy="50.5" r="0.5" transform="rotate(-180 37.5 50.5)" fill="#9900FF"/>
<circle cx="31.5" cy="55.5" r="0.5" transform="rotate(-180 31.5 55.5)" fill="#FFF700"/>
<circle cx="31.5" cy="44.5" r="0.5" transform="rotate(-180 31.5 44.5)" fill="#00AAFF"/>
<circle cx="36.5" cy="52.5" r="0.5" fill="#FF0000"/>
<circle cx="37.5" cy="60.5" r="0.5" fill="#FF00C8"/>
<circle cx="43.5" cy="55.5" r="0.5" fill="#FFF700"/>
<circle cx="43.5" cy="66.5" r="0.5" fill="#00AAFF"/>
<circle cx="39.5" cy="64.5" r="0.5" transform="rotate(-180 39.5 64.5)" fill="#FF0000"/>
<circle cx="38.5" cy="56.5" r="0.5" transform="rotate(-180 38.5 56.5)" fill="#9900FF"/>
<circle cx="32.5" cy="61.5" r="0.5" transform="rotate(-180 32.5 61.5)" fill="#FFF700"/>
<circle cx="32.5" cy="50.5" r="0.5" transform="rotate(-180 32.5 50.5)" fill="#00AAFF"/>
<circle cx="0.5" cy="0.5" r="0.5" transform="matrix(-1 0 0 1 47 61)" fill="#FF0000"/>
<circle cx="0.5" cy="0.5" r="0.5" transform="matrix(-1 0 0 1 46 69)" fill="#FF00C8"/>
<circle cx="0.5" cy="0.5" r="0.5" transform="matrix(-1 0 0 1 40 64)" fill="#FFF700"/>
<circle cx="0.5" cy="0.5" r="0.5" transform="matrix(-1 0 0 1 40 75)" fill="#00AAFF"/>
<circle cx="0.5" cy="0.5" r="0.5" transform="matrix(1 0 0 -1 43 74)" fill="#FF0000"/>
<circle cx="0.5" cy="0.5" r="0.5" transform="matrix(1 0 0 -1 44 66)" fill="#9900FF"/>
<circle cx="0.5" cy="0.5" r="0.5" transform="matrix(1 0 0 -1 50 71)" fill="#FFF700"/>
<circle cx="0.5" cy="0.5" r="0.5" transform="matrix(1 0 0 -1 50 60)" fill="#00AAFF"/>
<circle cx="0.5" cy="0.5" r="0.5" transform="matrix(-1 0 0 1 46 67)" fill="#FF0000"/>
<circle cx="0.5" cy="0.5" r="0.5" transform="matrix(-1 0 0 1 45 75)" fill="#FF00C8"/>
<circle cx="0.5" cy="0.5" r="0.5" transform="matrix(-1 0 0 1 39 70)" fill="#FFF700"/>
<circle cx="0.5" cy="0.5" r="0.5" transform="matrix(-1 0 0 1 39 81)" fill="#00AAFF"/>
<circle cx="0.5" cy="0.5" r="0.5" transform="matrix(1 0 0 -1 42 80)" fill="#FF0000"/>
<circle cx="0.5" cy="0.5" r="0.5" transform="matrix(1 0 0 -1 43 72)" fill="#9900FF"/>
<circle cx="0.5" cy="0.5" r="0.5" transform="matrix(1 0 0 -1 49 77)" fill="#FFF700"/>
<circle cx="0.5" cy="0.5" r="0.5" transform="matrix(1 0 0 -1 49 66)" fill="#00AAFF"/>
<circle cx="29.5" cy="58.5" r="0.5" fill="#FF0000"/>
<circle cx="30.5" cy="66.5" r="0.5" fill="#FF00C8"/>
<circle cx="36.5" cy="61.5" r="0.5" fill="#E1FF00"/>
<circle cx="36.5" cy="72.5" r="0.5" fill="#00FFC4"/>
<circle cx="32.5" cy="70.5" r="0.5" transform="rotate(-180 32.5 70.5)" fill="#FF0000"/>
<circle cx="31.5" cy="62.5" r="0.5" transform="rotate(-180 31.5 62.5)" fill="#FFA0BE"/>
<circle cx="25.5" cy="67.5" r="0.5" transform="rotate(-180 25.5 67.5)" fill="#E1FF00"/>
<circle cx="25.5" cy="56.5" r="0.5" transform="rotate(-180 25.5 56.5)" fill="#00FFC4"/>
<circle cx="30.5" cy="64.5" r="0.5" fill="#FF0000"/>
<circle cx="31.5" cy="72.5" r="0.5" fill="#FF00C8"/>
<circle cx="37.5" cy="67.5" r="0.5" fill="#E1FF00"/>
<circle cx="37.5" cy="78.5" r="0.5" fill="#00FFC4"/>
<circle cx="33.5" cy="76.5" r="0.5" transform="rotate(-180 33.5 76.5)" fill="#FF0000"/>
<circle cx="32.5" cy="68.5" r="0.5" transform="rotate(-180 32.5 68.5)" fill="#FFA0BE"/>
<circle cx="26.5" cy="73.5" r="0.5" transform="rotate(-180 26.5 73.5)" fill="#E1FF00"/>
<circle cx="26.5" cy="62.5" r="0.5" transform="rotate(-180 26.5 62.5)" fill="#00FFC4"/>
<circle cx="26.5" cy="34.5" r="0.5" fill="#FF0000"/>
<circle cx="27.5" cy="42.5" r="0.5" fill="#FF00C8"/>
<circle cx="33.5" cy="37.5" r="0.5" fill="#FFF700"/>
<circle cx="33.5" cy="48.5" r="0.5" fill="#00AAFF"/>
<circle cx="29.5" cy="46.5" r="0.5" transform="rotate(-180 29.5 46.5)" fill="#FF0000"/>
<circle cx="28.5" cy="38.5" r="0.5" transform="rotate(-180 28.5 38.5)" fill="#9900FF"/>
<circle cx="22.5" cy="43.5" r="0.5" transform="rotate(-180 22.5 43.5)" fill="#FFF700"/>
<circle cx="22.5" cy="32.5" r="0.5" transform="rotate(-180 22.5 32.5)" fill="#00AAFF"/>
<circle cx="27.5" cy="40.5" r="0.5" fill="#FF0000"/>
<circle cx="28.5" cy="48.5" r="0.5" fill="#FF00C8"/>
<circle cx="34.5" cy="43.5" r="0.5" fill="#FFF700"/>
<circle cx="34.5" cy="54.5" r="0.5" fill="#00AAFF"/>
<circle cx="30.5" cy="52.5" r="0.5" transform="rotate(-180 30.5 52.5)" fill="#FF0000"/>
<circle cx="29.5" cy="44.5" r="0.5" transform="rotate(-180 29.5 44.5)" fill="#9900FF"/>
<circle cx="23.5" cy="49.5" r="0.5" transform="rotate(-180 23.5 49.5)" fill="#FFF700"/>
<circle cx="23.5" cy="38.5" r="0.5" transform="rotate(-180 23.5 38.5)" fill="#00AAFF"/>
<circle cx="27.5" cy="17.5" r="0.5" fill="#FF0000"/>
<circle cx="28.5" cy="25.5" r="0.5" fill="#FF00C8"/>
<circle cx="34.5" cy="20.5" r="0.5" fill="#FFF700"/>
<circle cx="34.5" cy="31.5" r="0.5" fill="#00AAFF"/>
<circle cx="30.5" cy="29.5" r="0.5" transform="rotate(-180 30.5 29.5)" fill="#FF0000"/>
<circle cx="29.5" cy="21.5" r="0.5" transform="rotate(-180 29.5 21.5)" fill="#9900FF"/>
<circle cx="23.5" cy="26.5" r="0.5" transform="rotate(-180 23.5 26.5)" fill="#FFF700"/>
<circle cx="23.5" cy="15.5" r="0.5" transform="rotate(-180 23.5 15.5)" fill="#00AAFF"/>
<circle cx="28.5" cy="23.5" r="0.5" fill="#FF0000"/>
<circle cx="29.5" cy="31.5" r="0.5" fill="#FF00C8"/>
<circle cx="35.5" cy="26.5" r="0.5" fill="#FFF700"/>
<circle cx="35.5" cy="37.5" r="0.5" fill="#00AAFF"/>
<circle cx="31.5" cy="35.5" r="0.5" transform="rotate(-180 31.5 35.5)" fill="#FF0000"/>
<circle cx="30.5" cy="27.5" r="0.5" transform="rotate(-180 30.5 27.5)" fill="#9900FF"/>
<circle cx="24.5" cy="32.5" r="0.5" transform="rotate(-180 24.5 32.5)" fill="#FFF700"/>
<circle cx="24.5" cy="21.5" r="0.5" transform="rotate(-180 24.5 21.5)" fill="#00AAFF"/>
<circle cx="39.5" cy="49.5" r="0.5" fill="#FF0000"/>
<circle cx="40.5" cy="57.5" r="0.5" fill="#FF00C8"/>
<circle cx="46.5" cy="52.5" r="0.5" fill="#FFF700"/>
<circle cx="46.5" cy="63.5" r="0.5" fill="#00AAFF"/>
<circle cx="42.5" cy="61.5" r="0.5" transform="rotate(-180 42.5 61.5)" fill="#FF0000"/>
<circle cx="41.5" cy="53.5" r="0.5" transform="rotate(-180 41.5 53.5)" fill="#9900FF"/>
<circle cx="35.5" cy="58.5" r="0.5" transform="rotate(-180 35.5 58.5)" fill="#FFF700"/>
<circle cx="35.5" cy="47.5" r="0.5" transform="rotate(-180 35.5 47.5)" fill="#00AAFF"/>
<circle cx="40.5" cy="55.5" r="0.5" fill="#FF0000"/>
<circle cx="41.5" cy="63.5" r="0.5" fill="#FF00C8"/>
<circle cx="47.5" cy="58.5" r="0.5" fill="#FFF700"/>
<circle cx="47.5" cy="69.5" r="0.5" fill="#00AAFF"/>
<circle cx="43.5" cy="67.5" r="0.5" transform="rotate(-180 43.5 67.5)" fill="#FF0000"/>
<circle cx="42.5" cy="59.5" r="0.5" transform="rotate(-180 42.5 59.5)" fill="#9900FF"/>
<circle cx="36.5" cy="64.5" r="0.5" transform="rotate(-180 36.5 64.5)" fill="#FFF700"/>
<circle cx="36.5" cy="53.5" r="0.5" transform="rotate(-180 36.5 53.5)" fill="#00AAFF"/>
<circle cx="0.5" cy="0.5" r="0.5" transform="matrix(1 0 0 -1 41 54)" fill="#FF0000"/>
<circle cx="0.5" cy="0.5" r="0.5" transform="matrix(1 0 0 -1 42 46)" fill="#FF00C8"/>
<circle cx="0.5" cy="0.5" r="0.5" transform="matrix(1 0 0 -1 48 51)" fill="#FFF700"/>
<circle cx="0.5" cy="0.5" r="0.5" transform="matrix(1 0 0 -1 48 40)" fill="#00AAFF"/>
<circle cx="0.5" cy="0.5" r="0.5" transform="matrix(-1 0 0 1 45 41)" fill="#FF0000"/>
<circle cx="0.5" cy="0.5" r="0.5" transform="matrix(-1 0 0 1 44 49)" fill="#9900FF"/>
<circle cx="0.5" cy="0.5" r="0.5" transform="matrix(-1 0 0 1 38 44)" fill="#FFF700"/>
<circle cx="0.5" cy="0.5" r="0.5" transform="matrix(-1 0 0 1 38 55)" fill="#00AAFF"/>
<circle cx="0.5" cy="0.5" r="0.5" transform="matrix(1 0 0 -1 42 48)" fill="#FF0000"/>
<circle cx="0.5" cy="0.5" r="0.5" transform="matrix(1 0 0 -1 43 40)" fill="#FF00C8"/>
<circle cx="0.5" cy="0.5" r="0.5" transform="matrix(1 0 0 -1 49 45)" fill="#FFF700"/>
<circle cx="0.5" cy="0.5" r="0.5" transform="matrix(1 0 0 -1 49 34)" fill="#00AAFF"/>
<circle cx="0.5" cy="0.5" r="0.5" transform="matrix(-1 0 0 1 46 35)" fill="#FF0000"/>
<circle cx="0.5" cy="0.5" r="0.5" transform="matrix(-1 0 0 1 45 43)" fill="#9900FF"/>
<circle cx="0.5" cy="0.5" r="0.5" transform="matrix(-1 0 0 1 39 38)" fill="#FFF700"/>
<circle cx="0.5" cy="0.5" r="0.5" transform="matrix(-1 0 0 1 39 49)" fill="#00AAFF"/>
<circle cx="0.5" cy="0.5" r="0.5" transform="matrix(-1 0 0 1 38 19)" fill="#FF0000"/>
<circle cx="0.5" cy="0.5" r="0.5" transform="matrix(-1 0 0 1 37 27)" fill="#FF00C8"/>
<circle cx="0.5" cy="0.5" r="0.5" transform="matrix(-1 0 0 1 31 22)" fill="#FFF700"/>
<circle cx="0.5" cy="0.5" r="0.5" transform="matrix(-1 0 0 1 31 33)" fill="#00AAFF"/>
<circle cx="0.5" cy="0.5" r="0.5" transform="matrix(1 0 0 -1 34 32)" fill="#FF0000"/>
<circle cx="0.5" cy="0.5" r="0.5" transform="matrix(1 0 0 -1 35 24)" fill="#9900FF"/>
<circle cx="0.5" cy="0.5" r="0.5" transform="matrix(1 0 0 -1 41 29)" fill="#FFF700"/>
<circle cx="0.5" cy="0.5" r="0.5" transform="matrix(1 0 0 -1 41 18)" fill="#00AAFF"/>
<circle cx="0.5" cy="0.5" r="0.5" transform="matrix(-1 0 0 1 37 25)" fill="#FF0000"/>
<circle cx="0.5" cy="0.5" r="0.5" transform="matrix(-1 0 0 1 36 33)" fill="#FF00C8"/>
<circle cx="0.5" cy="0.5" r="0.5" transform="matrix(-1 0 0 1 30 28)" fill="#FFF700"/>
<circle cx="0.5" cy="0.5" r="0.5" transform="matrix(-1 0 0 1 30 39)" fill="#00AAFF"/>
<circle cx="0.5" cy="0.5" r="0.5" transform="matrix(1 0 0 -1 33 38)" fill="#FF0000"/>
<circle cx="0.5" cy="0.5" r="0.5" transform="matrix(1 0 0 -1 34 30)" fill="#9900FF"/>
<circle cx="0.5" cy="0.5" r="0.5" transform="matrix(1 0 0 -1 40 35)" fill="#FFF700"/>
<circle cx="0.5" cy="0.5" r="0.5" transform="matrix(1 0 0 -1 40 24)" fill="#00AAFF"/>
<circle cx="28.5" cy="50.5" r="0.5" transform="rotate(180 28.5 50.5)" fill="#FF0000"/>
<circle cx="27.5" cy="42.5" r="0.5" transform="rotate(180 27.5 42.5)" fill="#FF00C8"/>
<circle cx="21.5" cy="47.5" r="0.5" transform="rotate(180 21.5 47.5)" fill="#E1FF00"/>
<circle cx="21.5" cy="36.5" r="0.5" transform="rotate(180 21.5 36.5)" fill="#00FFC4"/>
<circle cx="25.5" cy="38.5" r="0.5" fill="#FF0000"/>
<circle cx="26.5" cy="46.5" r="0.5" fill="#FFA0BE"/>
<circle cx="32.5" cy="41.5" r="0.5" fill="#E1FF00"/>
<circle cx="32.5" cy="52.5" r="0.5" fill="#00FFC4"/>
<circle cx="27.5" cy="44.5" r="0.5" transform="rotate(180 27.5 44.5)" fill="#FF0000"/>
<circle cx="26.5" cy="36.5" r="0.5" transform="rotate(180 26.5 36.5)" fill="#FF00C8"/>
<circle cx="20.5" cy="41.5" r="0.5" transform="rotate(180 20.5 41.5)" fill="#E1FF00"/>
<circle cx="20.5" cy="30.5" r="0.5" transform="rotate(180 20.5 30.5)" fill="#00FFC4"/>
<circle cx="24.5" cy="32.5" r="0.5" fill="#FF0000"/>
<circle cx="25.5" cy="40.5" r="0.5" fill="#FFA0BE"/>
<circle cx="31.5" cy="35.5" r="0.5" fill="#E1FF00"/>
<circle cx="31.5" cy="46.5" r="0.5" fill="#00FFC4"/>
<circle cx="32.5" cy="16.5" r="0.5" fill="#FF0000"/>
<circle cx="33.5" cy="24.5" r="0.5" fill="#FF00C8"/>
<circle cx="39.5" cy="19.5" r="0.5" fill="#E1FF00"/>
<circle cx="39.5" cy="30.5" r="0.5" fill="#00FFC4"/>
<circle cx="35.5" cy="28.5" r="0.5" transform="rotate(-180 35.5 28.5)" fill="#FF0000"/>
<circle cx="34.5" cy="20.5" r="0.5" transform="rotate(-180 34.5 20.5)" fill="#FFA0BE"/>
<circle cx="28.5" cy="25.5" r="0.5" transform="rotate(-180 28.5 25.5)" fill="#E1FF00"/>
<circle cx="28.5" cy="14.5" r="0.5" transform="rotate(-180 28.5 14.5)" fill="#00FFC4"/>
<circle cx="33.5" cy="22.5" r="0.5" fill="#FF0000"/>
<circle cx="34.5" cy="30.5" r="0.5" fill="#FF00C8"/>
<circle cx="40.5" cy="25.5" r="0.5" fill="#E1FF00"/>
<circle cx="40.5" cy="36.5" r="0.5" fill="#00FFC4"/>
<circle cx="36.5" cy="34.5" r="0.5" transform="rotate(-180 36.5 34.5)" fill="#FF0000"/>
<circle cx="35.5" cy="26.5" r="0.5" transform="rotate(-180 35.5 26.5)" fill="#FFA0BE"/>
<circle cx="29.5" cy="31.5" r="0.5" transform="rotate(-180 29.5 31.5)" fill="#E1FF00"/>
<circle cx="29.5" cy="20.5" r="0.5" transform="rotate(-180 29.5 20.5)" fill="#00FFC4"/>
<circle cx="0.5" cy="0.5" r="0.5" transform="matrix(-1 0 0 1 44 31)" fill="#FF0000"/>
<circle cx="0.5" cy="0.5" r="0.5" transform="matrix(-1 0 0 1 43 39)" fill="#FF00C8"/>
<circle cx="0.5" cy="0.5" r="0.5" transform="matrix(-1 0 0 1 37 34)" fill="#E1FF00"/>
<circle cx="0.5" cy="0.5" r="0.5" transform="matrix(-1 0 0 1 37 45)" fill="#00FFC4"/>
<circle cx="0.5" cy="0.5" r="0.5" transform="matrix(1 0 0 -1 40 44)" fill="#FF0000"/>
<circle cx="0.5" cy="0.5" r="0.5" transform="matrix(1 0 0 -1 41 36)" fill="#FFA0BE"/>
<circle cx="0.5" cy="0.5" r="0.5" transform="matrix(1 0 0 -1 47 41)" fill="#E1FF00"/>
<circle cx="0.5" cy="0.5" r="0.5" transform="matrix(1 0 0 -1 47 30)" fill="#00FFC4"/>
<circle cx="0.5" cy="0.5" r="0.5" transform="matrix(-1 0 0 1 43 37)" fill="#FF0000"/>
<circle cx="0.5" cy="0.5" r="0.5" transform="matrix(-1 0 0 1 42 45)" fill="#FF00C8"/>
<circle cx="0.5" cy="0.5" r="0.5" transform="matrix(-1 0 0 1 36 40)" fill="#E1FF00"/>
<circle cx="0.5" cy="0.5" r="0.5" transform="matrix(-1 0 0 1 36 51)" fill="#00FFC4"/>
<circle cx="0.5" cy="0.5" r="0.5" transform="matrix(1 0 0 -1 39 50)" fill="#FF0000"/>
<circle cx="0.5" cy="0.5" r="0.5" transform="matrix(1 0 0 -1 40 42)" fill="#FFA0BE"/>
<circle cx="0.5" cy="0.5" r="0.5" transform="matrix(1 0 0 -1 46 47)" fill="#E1FF00"/>
<circle cx="0.5" cy="0.5" r="0.5" transform="matrix(1 0 0 -1 46 36)" fill="#00FFC4"/>
<circle cx="0.5" cy="0.5" r="0.5" transform="matrix(-1 0 0 1 66 45)" fill="#FF0000"/>
<circle cx="0.5" cy="0.5" r="0.5" transform="matrix(-1 0 0 1 65 53)" fill="#FF00C8"/>
<circle cx="0.5" cy="0.5" r="0.5" transform="matrix(-1 0 0 1 59 48)" fill="#FFF700"/>
<circle cx="0.5" cy="0.5" r="0.5" transform="matrix(-1 0 0 1 59 59)" fill="#00AAFF"/>
<circle cx="0.5" cy="0.5" r="0.5" transform="matrix(1 0 0 -1 62 58)" fill="#FF0000"/>
<circle cx="0.5" cy="0.5" r="0.5" transform="matrix(1 0 0 -1 63 50)" fill="#9900FF"/>
<circle cx="0.5" cy="0.5" r="0.5" transform="matrix(1 0 0 -1 69 55)" fill="#FFF700"/>
<circle cx="0.5" cy="0.5" r="0.5" transform="matrix(1 0 0 -1 69 44)" fill="#00AAFF"/>
<circle cx="0.5" cy="0.5" r="0.5" transform="matrix(-1 0 0 1 65 51)" fill="#FF0000"/>
<circle cx="0.5" cy="0.5" r="0.5" transform="matrix(-1 0 0 1 64 59)" fill="#FF00C8"/>
<circle cx="0.5" cy="0.5" r="0.5" transform="matrix(-1 0 0 1 58 54)" fill="#FFF700"/>
<circle cx="0.5" cy="0.5" r="0.5" transform="matrix(-1 0 0 1 58 65)" fill="#00AAFF"/>
<circle cx="0.5" cy="0.5" r="0.5" transform="matrix(1 0 0 -1 61 64)" fill="#FF0000"/>
<circle cx="0.5" cy="0.5" r="0.5" transform="matrix(1 0 0 -1 62 56)" fill="#9900FF"/>
<circle cx="0.5" cy="0.5" r="0.5" transform="matrix(1 0 0 -1 68 61)" fill="#FFF700"/>
<circle cx="0.5" cy="0.5" r="0.5" transform="matrix(1 0 0 -1 68 50)" fill="#00AAFF"/>
<circle cx="55.5" cy="47.5" r="0.5" fill="#FF0000"/>
<circle cx="56.5" cy="55.5" r="0.5" fill="#FF00C8"/>
<circle cx="62.5" cy="50.5" r="0.5" fill="#FFF700"/>
<circle cx="62.5" cy="61.5" r="0.5" fill="#00AAFF"/>
<circle cx="58.5" cy="59.5" r="0.5" transform="rotate(-180 58.5 59.5)" fill="#FF0000"/>
<circle cx="57.5" cy="51.5" r="0.5" transform="rotate(-180 57.5 51.5)" fill="#9900FF"/>
<circle cx="51.5" cy="56.5" r="0.5" transform="rotate(-180 51.5 56.5)" fill="#FFF700"/>
<circle cx="51.5" cy="45.5" r="0.5" transform="rotate(-180 51.5 45.5)" fill="#00AAFF"/>
<circle cx="56.5" cy="53.5" r="0.5" fill="#FF0000"/>
<circle cx="57.5" cy="61.5" r="0.5" fill="#FF00C8"/>
<circle cx="63.5" cy="56.5" r="0.5" fill="#FFF700"/>
<circle cx="63.5" cy="67.5" r="0.5" fill="#00AAFF"/>
<circle cx="59.5" cy="65.5" r="0.5" transform="rotate(-180 59.5 65.5)" fill="#FF0000"/>
<circle cx="58.5" cy="57.5" r="0.5" transform="rotate(-180 58.5 57.5)" fill="#9900FF"/>
<circle cx="52.5" cy="62.5" r="0.5" transform="rotate(-180 52.5 62.5)" fill="#FFF700"/>
<circle cx="52.5" cy="51.5" r="0.5" transform="rotate(-180 52.5 51.5)" fill="#00AAFF"/>
<circle cx="0.5" cy="0.5" r="0.5" transform="matrix(-1 0 0 1 67 62)" fill="#FF0000"/>
<circle cx="0.5" cy="0.5" r="0.5" transform="matrix(-1 0 0 1 66 70)" fill="#FF00C8"/>
<circle cx="0.5" cy="0.5" r="0.5" transform="matrix(-1 0 0 1 60 65)" fill="#FFF700"/>
<circle cx="0.5" cy="0.5" r="0.5" transform="matrix(-1 0 0 1 60 76)" fill="#00AAFF"/>
<circle cx="0.5" cy="0.5" r="0.5" transform="matrix(1 0 0 -1 63 75)" fill="#FF0000"/>
<circle cx="0.5" cy="0.5" r="0.5" transform="matrix(1 0 0 -1 64 67)" fill="#9900FF"/>
<circle cx="0.5" cy="0.5" r="0.5" transform="matrix(1 0 0 -1 70 72)" fill="#FFF700"/>
<circle cx="0.5" cy="0.5" r="0.5" transform="matrix(1 0 0 -1 70 61)" fill="#00AAFF"/>
<circle cx="0.5" cy="0.5" r="0.5" transform="matrix(-1 0 0 1 66 68)" fill="#FF0000"/>
<circle cx="0.5" cy="0.5" r="0.5" transform="matrix(-1 0 0 1 65 76)" fill="#FF00C8"/>
<circle cx="0.5" cy="0.5" r="0.5" transform="matrix(-1 0 0 1 59 71)" fill="#FFF700"/>
<circle cx="0.5" cy="0.5" r="0.5" transform="matrix(-1 0 0 1 59 82)" fill="#00AAFF"/>
<circle cx="0.5" cy="0.5" r="0.5" transform="matrix(1 0 0 -1 62 81)" fill="#FF0000"/>
<circle cx="0.5" cy="0.5" r="0.5" transform="matrix(1 0 0 -1 63 73)" fill="#9900FF"/>
<circle cx="0.5" cy="0.5" r="0.5" transform="matrix(1 0 0 -1 69 78)" fill="#FFF700"/>
<circle cx="0.5" cy="0.5" r="0.5" transform="matrix(1 0 0 -1 69 67)" fill="#00AAFF"/>
<circle cx="49.5" cy="59.5" r="0.5" fill="#FF0000"/>
<circle cx="50.5" cy="67.5" r="0.5" fill="#FF00C8"/>
<circle cx="56.5" cy="62.5" r="0.5" fill="#E1FF00"/>
<circle cx="56.5" cy="73.5" r="0.5" fill="#00FFC4"/>
<circle cx="52.5" cy="71.5" r="0.5" transform="rotate(-180 52.5 71.5)" fill="#FF0000"/>
<circle cx="51.5" cy="63.5" r="0.5" transform="rotate(-180 51.5 63.5)" fill="#FFA0BE"/>
<circle cx="45.5" cy="68.5" r="0.5" transform="rotate(-180 45.5 68.5)" fill="#E1FF00"/>
<circle cx="45.5" cy="57.5" r="0.5" transform="rotate(-180 45.5 57.5)" fill="#00FFC4"/>
<circle cx="50.5" cy="65.5" r="0.5" fill="#FF0000"/>
<circle cx="51.5" cy="73.5" r="0.5" fill="#FF00C8"/>
<circle cx="57.5" cy="68.5" r="0.5" fill="#E1FF00"/>
<circle cx="57.5" cy="79.5" r="0.5" fill="#00FFC4"/>
<circle cx="53.5" cy="77.5" r="0.5" transform="rotate(-180 53.5 77.5)" fill="#FF0000"/>
<circle cx="52.5" cy="69.5" r="0.5" transform="rotate(-180 52.5 69.5)" fill="#FFA0BE"/>
<circle cx="46.5" cy="74.5" r="0.5" transform="rotate(-180 46.5 74.5)" fill="#E1FF00"/>
<circle cx="46.5" cy="63.5" r="0.5" transform="rotate(-180 46.5 63.5)" fill="#00FFC4"/>
<circle cx="90.5" cy="63.5" r="0.5" transform="rotate(180 90.5 63.5)" fill="#FF0000"/>
<circle cx="89.5" cy="55.5" r="0.5" transform="rotate(180 89.5 55.5)" fill="#FF00C8"/>
<circle cx="83.5" cy="60.5" r="0.5" transform="rotate(180 83.5 60.5)" fill="#FFF700"/>
<circle cx="83.5" cy="49.5" r="0.5" transform="rotate(180 83.5 49.5)" fill="#00AAFF"/>
<circle cx="87.5" cy="51.5" r="0.5" fill="#FF0000"/>
<circle cx="88.5" cy="59.5" r="0.5" fill="#9900FF"/>
<circle cx="94.5" cy="54.5" r="0.5" fill="#FFF700"/>
<circle cx="94.5" cy="65.5" r="0.5" fill="#00AAFF"/>
<circle cx="89.5" cy="57.5" r="0.5" transform="rotate(180 89.5 57.5)" fill="#FF0000"/>
<circle cx="88.5" cy="49.5" r="0.5" transform="rotate(180 88.5 49.5)" fill="#FF00C8"/>
<circle cx="82.5" cy="54.5" r="0.5" transform="rotate(180 82.5 54.5)" fill="#FFF700"/>
<circle cx="82.5" cy="43.5" r="0.5" transform="rotate(180 82.5 43.5)" fill="#00AAFF"/>
<circle cx="86.5" cy="45.5" r="0.5" fill="#FF0000"/>
<circle cx="87.5" cy="53.5" r="0.5" fill="#9900FF"/>
<circle cx="93.5" cy="48.5" r="0.5" fill="#FFF700"/>
<circle cx="93.5" cy="59.5" r="0.5" fill="#00AAFF"/>
<circle cx="89.5" cy="80.5" r="0.5" transform="rotate(180 89.5 80.5)" fill="#FF0000"/>
<circle cx="88.5" cy="72.5" r="0.5" transform="rotate(180 88.5 72.5)" fill="#FF00C8"/>
<circle cx="82.5" cy="77.5" r="0.5" transform="rotate(180 82.5 77.5)" fill="#FFF700"/>
<circle cx="82.5" cy="66.5" r="0.5" transform="rotate(180 82.5 66.5)" fill="#00AAFF"/>
<circle cx="86.5" cy="68.5" r="0.5" fill="#FF0000"/>
<circle cx="87.5" cy="76.5" r="0.5" fill="#9900FF"/>
<circle cx="93.5" cy="71.5" r="0.5" fill="#FFF700"/>
<circle cx="93.5" cy="82.5" r="0.5" fill="#00AAFF"/>
<circle cx="88.5" cy="74.5" r="0.5" transform="rotate(180 88.5 74.5)" fill="#FF0000"/>
<circle cx="87.5" cy="66.5" r="0.5" transform="rotate(180 87.5 66.5)" fill="#FF00C8"/>
<circle cx="81.5" cy="71.5" r="0.5" transform="rotate(180 81.5 71.5)" fill="#FFF700"/>
<circle cx="81.5" cy="60.5" r="0.5" transform="rotate(180 81.5 60.5)" fill="#00AAFF"/>
<circle cx="85.5" cy="62.5" r="0.5" fill="#FF0000"/>
<circle cx="86.5" cy="70.5" r="0.5" fill="#9900FF"/>
<circle cx="92.5" cy="65.5" r="0.5" fill="#FFF700"/>
<circle cx="92.5" cy="76.5" r="0.5" fill="#00AAFF"/>
<circle cx="77.5" cy="48.5" r="0.5" transform="rotate(180 77.5 48.5)" fill="#FF0000"/>
<circle cx="76.5" cy="40.5" r="0.5" transform="rotate(180 76.5 40.5)" fill="#FF00C8"/>
<circle cx="70.5" cy="45.5" r="0.5" transform="rotate(180 70.5 45.5)" fill="#FFF700"/>
<circle cx="70.5" cy="34.5" r="0.5" transform="rotate(180 70.5 34.5)" fill="#00AAFF"/>
<circle cx="74.5" cy="36.5" r="0.5" fill="#FF0000"/>
<circle cx="75.5" cy="44.5" r="0.5" fill="#9900FF"/>
<circle cx="81.5" cy="39.5" r="0.5" fill="#FFF700"/>
<circle cx="81.5" cy="50.5" r="0.5" fill="#00AAFF"/>
<circle cx="76.5" cy="42.5" r="0.5" transform="rotate(180 76.5 42.5)" fill="#FF0000"/>
<circle cx="75.5" cy="34.5" r="0.5" transform="rotate(180 75.5 34.5)" fill="#FF00C8"/>
<circle cx="69.5" cy="39.5" r="0.5" transform="rotate(180 69.5 39.5)" fill="#FFF700"/>
<circle cx="69.5" cy="28.5" r="0.5" transform="rotate(180 69.5 28.5)" fill="#00AAFF"/>
<circle cx="73.5" cy="30.5" r="0.5" fill="#FF0000"/>
<circle cx="74.5" cy="38.5" r="0.5" fill="#9900FF"/>
<circle cx="80.5" cy="33.5" r="0.5" fill="#FFF700"/>
<circle cx="80.5" cy="44.5" r="0.5" fill="#00AAFF"/>
<circle cx="0.5" cy="0.5" r="0.5" transform="matrix(-1 0 0 1 76 44)" fill="#FF0000"/>
<circle cx="0.5" cy="0.5" r="0.5" transform="matrix(-1 0 0 1 75 52)" fill="#FF00C8"/>
<circle cx="0.5" cy="0.5" r="0.5" transform="matrix(-1 0 0 1 69 47)" fill="#FFF700"/>
<circle cx="0.5" cy="0.5" r="0.5" transform="matrix(-1 0 0 1 69 58)" fill="#00AAFF"/>
<circle cx="0.5" cy="0.5" r="0.5" transform="matrix(1 0 0 -1 72 57)" fill="#FF0000"/>
<circle cx="0.5" cy="0.5" r="0.5" transform="matrix(1 0 0 -1 73 49)" fill="#9900FF"/>
<circle cx="0.5" cy="0.5" r="0.5" transform="matrix(1 0 0 -1 79 54)" fill="#FFF700"/>
<circle cx="0.5" cy="0.5" r="0.5" transform="matrix(1 0 0 -1 79 43)" fill="#00AAFF"/>
<circle cx="0.5" cy="0.5" r="0.5" transform="matrix(-1 0 0 1 75 50)" fill="#FF0000"/>
<circle cx="0.5" cy="0.5" r="0.5" transform="matrix(-1 0 0 1 74 58)" fill="#FF00C8"/>
<circle cx="0.5" cy="0.5" r="0.5" transform="matrix(-1 0 0 1 68 53)" fill="#FFF700"/>
<circle cx="0.5" cy="0.5" r="0.5" transform="matrix(-1 0 0 1 68 64)" fill="#00AAFF"/>
<circle cx="0.5" cy="0.5" r="0.5" transform="matrix(1 0 0 -1 71 63)" fill="#FF0000"/>
<circle cx="0.5" cy="0.5" r="0.5" transform="matrix(1 0 0 -1 72 55)" fill="#9900FF"/>
<circle cx="0.5" cy="0.5" r="0.5" transform="matrix(1 0 0 -1 78 60)" fill="#FFF700"/>
<circle cx="0.5" cy="0.5" r="0.5" transform="matrix(1 0 0 -1 78 49)" fill="#00AAFF"/>
<circle cx="0.5" cy="0.5" r="0.5" transform="matrix(1 0 0 -1 79 79)" fill="#FF0000"/>
<circle cx="0.5" cy="0.5" r="0.5" transform="matrix(1 0 0 -1 80 71)" fill="#FF00C8"/>
<circle cx="0.5" cy="0.5" r="0.5" transform="matrix(1 0 0 -1 86 76)" fill="#FFF700"/>
<circle cx="0.5" cy="0.5" r="0.5" transform="matrix(1 0 0 -1 86 65)" fill="#00AAFF"/>
<circle cx="0.5" cy="0.5" r="0.5" transform="matrix(-1 0 0 1 83 66)" fill="#FF0000"/>
<circle cx="0.5" cy="0.5" r="0.5" transform="matrix(-1 0 0 1 82 74)" fill="#9900FF"/>
<circle cx="0.5" cy="0.5" r="0.5" transform="matrix(-1 0 0 1 76 69)" fill="#FFF700"/>
<circle cx="0.5" cy="0.5" r="0.5" transform="matrix(-1 0 0 1 76 80)" fill="#00AAFF"/>
<circle cx="0.5" cy="0.5" r="0.5" transform="matrix(1 0 0 -1 80 73)" fill="#FF0000"/>
<circle cx="0.5" cy="0.5" r="0.5" transform="matrix(1 0 0 -1 81 65)" fill="#FF00C8"/>
<circle cx="0.5" cy="0.5" r="0.5" transform="matrix(1 0 0 -1 87 70)" fill="#FFF700"/>
<circle cx="0.5" cy="0.5" r="0.5" transform="matrix(1 0 0 -1 87 59)" fill="#00AAFF"/>
<circle cx="0.5" cy="0.5" r="0.5" transform="matrix(-1 0 0 1 84 60)" fill="#FF0000"/>
<circle cx="0.5" cy="0.5" r="0.5" transform="matrix(-1 0 0 1 83 68)" fill="#9900FF"/>
<circle cx="0.5" cy="0.5" r="0.5" transform="matrix(-1 0 0 1 77 63)" fill="#FFF700"/>
<circle cx="0.5" cy="0.5" r="0.5" transform="matrix(-1 0 0 1 77 74)" fill="#00AAFF"/>
<circle cx="88.5" cy="47.5" r="0.5" fill="#FF0000"/>
<circle cx="89.5" cy="55.5" r="0.5" fill="#FF00C8"/>
<circle cx="95.5" cy="50.5" r="0.5" fill="#E1FF00"/>
<circle cx="95.5" cy="61.5" r="0.5" fill="#00FFC4"/>
<circle cx="91.5" cy="59.5" r="0.5" transform="rotate(-180 91.5 59.5)" fill="#FF0000"/>
<circle cx="90.5" cy="51.5" r="0.5" transform="rotate(-180 90.5 51.5)" fill="#FFA0BE"/>
<circle cx="84.5" cy="56.5" r="0.5" transform="rotate(-180 84.5 56.5)" fill="#E1FF00"/>
<circle cx="84.5" cy="45.5" r="0.5" transform="rotate(-180 84.5 45.5)" fill="#00FFC4"/>
<circle cx="89.5" cy="53.5" r="0.5" fill="#FF0000"/>
<circle cx="90.5" cy="61.5" r="0.5" fill="#FF00C8"/>
<circle cx="96.5" cy="56.5" r="0.5" fill="#E1FF00"/>
<circle cx="96.5" cy="67.5" r="0.5" fill="#00FFC4"/>
<circle cx="92.5" cy="65.5" r="0.5" transform="rotate(-180 92.5 65.5)" fill="#FF0000"/>
<circle cx="91.5" cy="57.5" r="0.5" transform="rotate(-180 91.5 57.5)" fill="#FFA0BE"/>
<circle cx="85.5" cy="62.5" r="0.5" transform="rotate(-180 85.5 62.5)" fill="#E1FF00"/>
<circle cx="85.5" cy="51.5" r="0.5" transform="rotate(-180 85.5 51.5)" fill="#00FFC4"/>
<circle cx="84.5" cy="81.5" r="0.5" transform="rotate(180 84.5 81.5)" fill="#FF0000"/>
<circle cx="83.5" cy="73.5" r="0.5" transform="rotate(180 83.5 73.5)" fill="#FF00C8"/>
<circle cx="77.5" cy="78.5" r="0.5" transform="rotate(180 77.5 78.5)" fill="#E1FF00"/>
<circle cx="77.5" cy="67.5" r="0.5" transform="rotate(180 77.5 67.5)" fill="#00FFC4"/>
<circle cx="81.5" cy="69.5" r="0.5" fill="#FF0000"/>
<circle cx="82.5" cy="77.5" r="0.5" fill="#FFA0BE"/>
<circle cx="88.5" cy="72.5" r="0.5" fill="#E1FF00"/>
<circle cx="88.5" cy="83.5" r="0.5" fill="#00FFC4"/>
<circle cx="83.5" cy="75.5" r="0.5" transform="rotate(180 83.5 75.5)" fill="#FF0000"/>
<circle cx="82.5" cy="67.5" r="0.5" transform="rotate(180 82.5 67.5)" fill="#FF00C8"/>
<circle cx="76.5" cy="72.5" r="0.5" transform="rotate(180 76.5 72.5)" fill="#E1FF00"/>
<circle cx="76.5" cy="61.5" r="0.5" transform="rotate(180 76.5 61.5)" fill="#00FFC4"/>
<circle cx="80.5" cy="63.5" r="0.5" fill="#FF0000"/>
<circle cx="81.5" cy="71.5" r="0.5" fill="#FFA0BE"/>
<circle cx="87.5" cy="66.5" r="0.5" fill="#E1FF00"/>
<circle cx="87.5" cy="77.5" r="0.5" fill="#00FFC4"/>
<circle cx="0.5" cy="0.5" r="0.5" transform="matrix(1 0 0 -1 73 67)" fill="#FF0000"/>
<circle cx="0.5" cy="0.5" r="0.5" transform="matrix(1 0 0 -1 74 59)" fill="#FF00C8"/>
<circle cx="0.5" cy="0.5" r="0.5" transform="matrix(1 0 0 -1 80 64)" fill="#E1FF00"/>
<circle cx="0.5" cy="0.5" r="0.5" transform="matrix(1 0 0 -1 80 53)" fill="#00FFC4"/>
<circle cx="0.5" cy="0.5" r="0.5" transform="matrix(-1 0 0 1 77 54)" fill="#FF0000"/>
<circle cx="0.5" cy="0.5" r="0.5" transform="matrix(-1 0 0 1 76 62)" fill="#FFA0BE"/>
<circle cx="0.5" cy="0.5" r="0.5" transform="matrix(-1 0 0 1 70 57)" fill="#E1FF00"/>
<circle cx="0.5" cy="0.5" r="0.5" transform="matrix(-1 0 0 1 70 68)" fill="#00FFC4"/>
<circle cx="0.5" cy="0.5" r="0.5" transform="matrix(1 0 0 -1 74 61)" fill="#FF0000"/>
<circle cx="0.5" cy="0.5" r="0.5" transform="matrix(1 0 0 -1 75 53)" fill="#FF00C8"/>
<circle cx="0.5" cy="0.5" r="0.5" transform="matrix(1 0 0 -1 81 58)" fill="#E1FF00"/>
<circle cx="0.5" cy="0.5" r="0.5" transform="matrix(1 0 0 -1 81 47)" fill="#00FFC4"/>
<circle cx="0.5" cy="0.5" r="0.5" transform="matrix(-1 0 0 1 78 48)" fill="#FF0000"/>
<circle cx="0.5" cy="0.5" r="0.5" transform="matrix(-1 0 0 1 77 56)" fill="#FFA0BE"/>
<circle cx="0.5" cy="0.5" r="0.5" transform="matrix(-1 0 0 1 71 51)" fill="#E1FF00"/>
<circle cx="0.5" cy="0.5" r="0.5" transform="matrix(-1 0 0 1 71 62)" fill="#00FFC4"/>
<circle cx="0.5" cy="0.5" r="0.5" transform="matrix(1 0 0 -1 51 53)" fill="#FF0000"/>
<circle cx="0.5" cy="0.5" r="0.5" transform="matrix(1 0 0 -1 52 45)" fill="#FF00C8"/>
<circle cx="0.5" cy="0.5" r="0.5" transform="matrix(1 0 0 -1 58 50)" fill="#FFF700"/>
<circle cx="0.5" cy="0.5" r="0.5" transform="matrix(1 0 0 -1 58 39)" fill="#00AAFF"/>
<circle cx="0.5" cy="0.5" r="0.5" transform="matrix(-1 0 0 1 55 40)" fill="#FF0000"/>
<circle cx="0.5" cy="0.5" r="0.5" transform="matrix(-1 0 0 1 54 48)" fill="#9900FF"/>
<circle cx="0.5" cy="0.5" r="0.5" transform="matrix(-1 0 0 1 48 43)" fill="#FFF700"/>
<circle cx="0.5" cy="0.5" r="0.5" transform="matrix(-1 0 0 1 48 54)" fill="#00AAFF"/>
<circle cx="0.5" cy="0.5" r="0.5" transform="matrix(1 0 0 -1 52 47)" fill="#FF0000"/>
<circle cx="0.5" cy="0.5" r="0.5" transform="matrix(1 0 0 -1 53 39)" fill="#FF00C8"/>
<circle cx="0.5" cy="0.5" r="0.5" transform="matrix(1 0 0 -1 59 44)" fill="#FFF700"/>
<circle cx="0.5" cy="0.5" r="0.5" transform="matrix(1 0 0 -1 59 33)" fill="#00AAFF"/>
<circle cx="0.5" cy="0.5" r="0.5" transform="matrix(-1 0 0 1 56 34)" fill="#FF0000"/>
<circle cx="0.5" cy="0.5" r="0.5" transform="matrix(-1 0 0 1 55 42)" fill="#9900FF"/>
<circle cx="0.5" cy="0.5" r="0.5" transform="matrix(-1 0 0 1 49 37)" fill="#FFF700"/>
<circle cx="0.5" cy="0.5" r="0.5" transform="matrix(-1 0 0 1 49 48)" fill="#00AAFF"/>
<circle cx="61.5" cy="50.5" r="0.5" transform="rotate(180 61.5 50.5)" fill="#FF0000"/>
<circle cx="60.5" cy="42.5" r="0.5" transform="rotate(180 60.5 42.5)" fill="#FF00C8"/>
<circle cx="54.5" cy="47.5" r="0.5" transform="rotate(180 54.5 47.5)" fill="#FFF700"/>
<circle cx="54.5" cy="36.5" r="0.5" transform="rotate(180 54.5 36.5)" fill="#00AAFF"/>
<circle cx="58.5" cy="38.5" r="0.5" fill="#FF0000"/>
<circle cx="59.5" cy="46.5" r="0.5" fill="#9900FF"/>
<circle cx="65.5" cy="41.5" r="0.5" fill="#FFF700"/>
<circle cx="65.5" cy="52.5" r="0.5" fill="#00AAFF"/>
<circle cx="60.5" cy="44.5" r="0.5" transform="rotate(180 60.5 44.5)" fill="#FF0000"/>
<circle cx="59.5" cy="36.5" r="0.5" transform="rotate(180 59.5 36.5)" fill="#FF00C8"/>
<circle cx="53.5" cy="41.5" r="0.5" transform="rotate(180 53.5 41.5)" fill="#FFF700"/>
<circle cx="53.5" cy="30.5" r="0.5" transform="rotate(180 53.5 30.5)" fill="#00AAFF"/>
<circle cx="57.5" cy="32.5" r="0.5" fill="#FF0000"/>
<circle cx="58.5" cy="40.5" r="0.5" fill="#9900FF"/>
<circle cx="64.5" cy="35.5" r="0.5" fill="#FFF700"/>
<circle cx="64.5" cy="46.5" r="0.5" fill="#00AAFF"/>
<circle cx="0.5" cy="0.5" r="0.5" transform="matrix(1 0 0 -1 50 36)" fill="#FF0000"/>
<circle cx="0.5" cy="0.5" r="0.5" transform="matrix(1 0 0 -1 51 28)" fill="#FF00C8"/>
<circle cx="0.5" cy="0.5" r="0.5" transform="matrix(1 0 0 -1 57 33)" fill="#FFF700"/>
<circle cx="0.5" cy="0.5" r="0.5" transform="matrix(1 0 0 -1 57 22)" fill="#00AAFF"/>
<circle cx="0.5" cy="0.5" r="0.5" transform="matrix(-1 0 0 1 54 23)" fill="#FF0000"/>
<circle cx="0.5" cy="0.5" r="0.5" transform="matrix(-1 0 0 1 53 31)" fill="#9900FF"/>
<circle cx="0.5" cy="0.5" r="0.5" transform="matrix(-1 0 0 1 47 26)" fill="#FFF700"/>
<circle cx="0.5" cy="0.5" r="0.5" transform="matrix(-1 0 0 1 47 37)" fill="#00AAFF"/>
<circle cx="0.5" cy="0.5" r="0.5" transform="matrix(1 0 0 -1 51 30)" fill="#FF0000"/>
<circle cx="0.5" cy="0.5" r="0.5" transform="matrix(1 0 0 -1 52 22)" fill="#FF00C8"/>
<circle cx="0.5" cy="0.5" r="0.5" transform="matrix(1 0 0 -1 58 27)" fill="#FFF700"/>
<circle cx="0.5" cy="0.5" r="0.5" transform="matrix(1 0 0 -1 58 16)" fill="#00AAFF"/>
<circle cx="0.5" cy="0.5" r="0.5" transform="matrix(-1 0 0 1 55 17)" fill="#FF0000"/>
<circle cx="0.5" cy="0.5" r="0.5" transform="matrix(-1 0 0 1 54 25)" fill="#9900FF"/>
<circle cx="0.5" cy="0.5" r="0.5" transform="matrix(-1 0 0 1 48 20)" fill="#FFF700"/>
<circle cx="0.5" cy="0.5" r="0.5" transform="matrix(-1 0 0 1 48 31)" fill="#00AAFF"/>
<circle cx="67.5" cy="38.5" r="0.5" transform="rotate(180 67.5 38.5)" fill="#FF0000"/>
<circle cx="66.5" cy="30.5" r="0.5" transform="rotate(180 66.5 30.5)" fill="#FF00C8"/>
<circle cx="60.5" cy="35.5" r="0.5" transform="rotate(180 60.5 35.5)" fill="#E1FF00"/>
<circle cx="60.5" cy="24.5" r="0.5" transform="rotate(180 60.5 24.5)" fill="#00FFC4"/>
<circle cx="64.5" cy="26.5" r="0.5" fill="#FF0000"/>
<circle cx="65.5" cy="34.5" r="0.5" fill="#FFA0BE"/>
<circle cx="71.5" cy="29.5" r="0.5" fill="#E1FF00"/>
<circle cx="71.5" cy="40.5" r="0.5" fill="#00FFC4"/>
<circle cx="66.5" cy="32.5" r="0.5" transform="rotate(180 66.5 32.5)" fill="#FF0000"/>
<circle cx="65.5" cy="24.5" r="0.5" transform="rotate(180 65.5 24.5)" fill="#FF00C8"/>
<circle cx="59.5" cy="29.5" r="0.5" transform="rotate(180 59.5 29.5)" fill="#E1FF00"/>
<circle cx="59.5" cy="18.5" r="0.5" transform="rotate(180 59.5 18.5)" fill="#00FFC4"/>
<circle cx="63.5" cy="20.5" r="0.5" fill="#FF0000"/>
<circle cx="64.5" cy="28.5" r="0.5" fill="#FFA0BE"/>
<circle cx="70.5" cy="23.5" r="0.5" fill="#E1FF00"/>
<circle cx="70.5" cy="34.5" r="0.5" fill="#00FFC4"/>
<circle cx="114.106" cy="65.2049" r="0.5" transform="rotate(-167.778 114.106 65.2049)" fill="#FF0000"/>
<circle cx="114.822" cy="57.1746" r="0.5" transform="rotate(-167.778 114.822 57.1746)" fill="#FF00C8"/>
<circle cx="107.899" cy="60.7911" r="0.5" transform="rotate(-167.778 107.899 60.7911)" fill="#FFF700"/>
<circle cx="110.228" cy="50.0404" r="0.5" transform="rotate(-167.778 110.228 50.0404)" fill="#00AAFF"/>
<circle cx="113.714" cy="52.8418" r="0.5" transform="rotate(12.2219 113.714 52.8418)" fill="#FF0000"/>
<circle cx="112.998" cy="60.8722" r="0.5" transform="rotate(12.2219 112.998 60.8722)" fill="#9900FF"/>
<circle cx="119.92" cy="57.2557" r="0.5" transform="rotate(12.2219 119.92 57.2557)" fill="#FFF700"/>
<circle cx="117.592" cy="68.0064" r="0.5" transform="rotate(12.2219 117.592 68.0064)" fill="#00AAFF"/>
<circle cx="114.398" cy="59.1292" r="0.5" transform="rotate(-167.778 114.398 59.1292)" fill="#FF0000"/>
<circle cx="115.115" cy="51.0989" r="0.5" transform="rotate(-167.778 115.115 51.0989)" fill="#FF00C8"/>
<circle cx="108.192" cy="54.7154" r="0.5" transform="rotate(-167.778 108.192 54.7154)" fill="#FFF700"/>
<circle cx="110.521" cy="43.9647" r="0.5" transform="rotate(-167.778 110.521 43.9647)" fill="#00AAFF"/>
<circle cx="114.007" cy="46.7661" r="0.5" transform="rotate(12.2219 114.007 46.7661)" fill="#FF0000"/>
<circle cx="113.291" cy="54.7965" r="0.5" transform="rotate(12.2219 113.291 54.7965)" fill="#9900FF"/>
<circle cx="120.213" cy="51.18" r="0.5" transform="rotate(12.2219 120.213 51.18)" fill="#FFF700"/>
<circle cx="117.884" cy="61.9307" r="0.5" transform="rotate(12.2219 117.884 61.9307)" fill="#00AAFF"/>
<circle cx="109.529" cy="81.608" r="0.5" transform="rotate(-167.778 109.529 81.608)" fill="#FF0000"/>
<circle cx="110.246" cy="73.5776" r="0.5" transform="rotate(-167.778 110.246 73.5776)" fill="#FF00C8"/>
<circle cx="103.323" cy="77.1941" r="0.5" transform="rotate(-167.778 103.323 77.1941)" fill="#FFF700"/>
<circle cx="105.652" cy="66.4434" r="0.5" transform="rotate(-167.778 105.652 66.4434)" fill="#00AAFF"/>
<circle cx="109.138" cy="69.2448" r="0.5" transform="rotate(12.2219 109.138 69.2448)" fill="#FF0000"/>
<circle cx="108.422" cy="77.2752" r="0.5" transform="rotate(12.2219 108.422 77.2752)" fill="#9900FF"/>
<circle cx="115.344" cy="73.6587" r="0.5" transform="rotate(12.2219 115.344 73.6587)" fill="#FFF700"/>
<circle cx="109.822" cy="75.5322" r="0.5" transform="rotate(-167.778 109.822 75.5322)" fill="#FF0000"/>
<circle cx="110.538" cy="67.5019" r="0.5" transform="rotate(-167.778 110.538 67.5019)" fill="#FF00C8"/>
<circle cx="103.616" cy="71.1183" r="0.5" transform="rotate(-167.778 103.616 71.1183)" fill="#FFF700"/>
<circle cx="105.945" cy="60.3677" r="0.5" transform="rotate(-167.778 105.945 60.3677)" fill="#00AAFF"/>
<circle cx="109.431" cy="63.1691" r="0.5" transform="rotate(12.2219 109.431 63.1691)" fill="#FF0000"/>
<circle cx="108.714" cy="71.1995" r="0.5" transform="rotate(12.2219 108.714 71.1995)" fill="#9900FF"/>
<circle cx="115.637" cy="67.583" r="0.5" transform="rotate(12.2219 115.637 67.583)" fill="#FFF700"/>
<circle cx="113.308" cy="78.3337" r="0.5" transform="rotate(12.2219 113.308 78.3337)" fill="#00AAFF"/>
<circle cx="104.576" cy="47.7929" r="0.5" transform="rotate(-167.778 104.576 47.7929)" fill="#FF0000"/>
<circle cx="105.292" cy="39.7625" r="0.5" transform="rotate(-167.778 105.292 39.7625)" fill="#FF00C8"/>
<circle cx="98.3695" cy="43.379" r="0.5" transform="rotate(-167.778 98.3695 43.379)" fill="#FFF700"/>
<circle cx="100.698" cy="32.6283" r="0.5" transform="rotate(-167.778 100.698 32.6283)" fill="#00AAFF"/>
<circle cx="104.184" cy="35.4297" r="0.5" transform="rotate(12.2219 104.184 35.4297)" fill="#FF0000"/>
<circle cx="103.468" cy="43.4601" r="0.5" transform="rotate(12.2219 103.468 43.4601)" fill="#9900FF"/>
<circle cx="110.39" cy="39.8436" r="0.5" transform="rotate(12.2219 110.39 39.8436)" fill="#FFF700"/>
<circle cx="108.062" cy="50.5943" r="0.5" transform="rotate(12.2219 108.062 50.5943)" fill="#00AAFF"/>
<circle cx="104.869" cy="41.7171" r="0.5" transform="rotate(-167.778 104.869 41.7171)" fill="#FF0000"/>
<circle cx="105.585" cy="33.6868" r="0.5" transform="rotate(-167.778 105.585 33.6868)" fill="#FF00C8"/>
<circle cx="98.6623" cy="37.3032" r="0.5" transform="rotate(-167.778 98.6623 37.3032)" fill="#FFF700"/>
<circle cx="100.991" cy="26.5526" r="0.5" transform="rotate(-167.778 100.991 26.5526)" fill="#00AAFF"/>
<circle cx="104.477" cy="29.354" r="0.5" transform="rotate(12.2219 104.477 29.354)" fill="#FF0000"/>
<circle cx="103.761" cy="37.3844" r="0.5" transform="rotate(12.2219 103.761 37.3844)" fill="#9900FF"/>
<circle cx="110.683" cy="33.7679" r="0.5" transform="rotate(12.2219 110.683 33.7679)" fill="#FFF700"/>
<circle cx="108.355" cy="44.5186" r="0.5" transform="rotate(12.2219 108.355 44.5186)" fill="#00AAFF"/>
<circle cx="0.5" cy="0.5" r="0.5" transform="matrix(-0.977335 -0.211699 -0.211699 0.977335 104.062 43.0773)" fill="#FF0000"/>
<circle cx="0.5" cy="0.5" r="0.5" transform="matrix(-0.977335 -0.211699 -0.211699 0.977335 101.391 50.6843)" fill="#FF00C8"/>
<circle cx="0.5" cy="0.5" r="0.5" transform="matrix(-0.977335 -0.211699 -0.211699 0.977335 96.5859 44.5274)" fill="#FFF700"/>
<circle cx="0.5" cy="0.5" r="0.5" transform="matrix(-0.977335 -0.211699 -0.211699 0.977335 94.2573 55.2781)" fill="#00AAFF"/>
<circle cx="0.5" cy="0.5" r="0.5" transform="matrix(0.977335 0.211699 0.211699 -0.977335 97.401 54.9359)" fill="#FF0000"/>
<circle cx="0.5" cy="0.5" r="0.5" transform="matrix(0.977335 0.211699 0.211699 -0.977335 100.072 47.3289)" fill="#9900FF"/>
<circle cx="0.5" cy="0.5" r="0.5" transform="matrix(0.977335 0.211699 0.211699 -0.977335 104.877 53.4857)" fill="#FFF700"/>
<circle cx="0.5" cy="0.5" r="0.5" transform="matrix(0.977335 0.211699 0.211699 -0.977335 107.206 42.7351)" fill="#00AAFF"/>
<circle cx="0.5" cy="0.5" r="0.5" transform="matrix(-0.977335 -0.211699 -0.211699 0.977335 101.815 48.7296)" fill="#FF0000"/>
<circle cx="0.5" cy="0.5" r="0.5" transform="matrix(-0.977335 -0.211699 -0.211699 0.977335 99.144 56.3366)" fill="#FF00C8"/>
<circle cx="0.5" cy="0.5" r="0.5" transform="matrix(-0.977335 -0.211699 -0.211699 0.977335 94.3384 50.1797)" fill="#FFF700"/>
<circle cx="0.5" cy="0.5" r="0.5" transform="matrix(-0.977335 -0.211699 -0.211699 0.977335 92.0098 60.9304)" fill="#00AAFF"/>
<circle cx="0.5" cy="0.5" r="0.5" transform="matrix(0.977335 0.211699 0.211699 -0.977335 95.1535 60.5882)" fill="#FF0000"/>
<circle cx="0.5" cy="0.5" r="0.5" transform="matrix(0.977335 0.211699 0.211699 -0.977335 97.8244 52.9812)" fill="#9900FF"/>
<circle cx="0.5" cy="0.5" r="0.5" transform="matrix(0.977335 0.211699 0.211699 -0.977335 102.63 59.1381)" fill="#FFF700"/>
<circle cx="0.5" cy="0.5" r="0.5" transform="matrix(0.977335 0.211699 0.211699 -0.977335 104.959 48.3874)" fill="#00AAFF"/>
<circle cx="0.5" cy="0.5" r="0.5" transform="matrix(0.977335 0.211699 0.211699 -0.977335 99.585 77.9191)" fill="#FF0000"/>
<circle cx="0.5" cy="0.5" r="0.5" transform="matrix(0.977335 0.211699 0.211699 -0.977335 102.256 70.3121)" fill="#FF00C8"/>
<circle cx="0.5" cy="0.5" r="0.5" transform="matrix(0.977335 0.211699 0.211699 -0.977335 107.061 76.469)" fill="#FFF700"/>
<circle cx="0.5" cy="0.5" r="0.5" transform="matrix(0.977335 0.211699 0.211699 -0.977335 109.39 65.7183)" fill="#00AAFF"/>
<circle cx="0.5" cy="0.5" r="0.5" transform="matrix(-0.977335 -0.211699 -0.211699 0.977335 106.246 66.0606)" fill="#FF0000"/>
<circle cx="0.5" cy="0.5" r="0.5" transform="matrix(-0.977335 -0.211699 -0.211699 0.977335 103.575 73.6675)" fill="#9900FF"/>
<circle cx="0.5" cy="0.5" r="0.5" transform="matrix(-0.977335 -0.211699 -0.211699 0.977335 98.7699 67.5107)" fill="#FFF700"/>
<circle cx="0.5" cy="0.5" r="0.5" transform="matrix(-0.977335 -0.211699 -0.211699 0.977335 96.4412 78.2614)" fill="#00AAFF"/>
<circle cx="0.5" cy="0.5" r="0.5" transform="matrix(0.977335 0.211699 0.211699 -0.977335 101.832 72.2668)" fill="#FF0000"/>
<circle cx="0.5" cy="0.5" r="0.5" transform="matrix(0.977335 0.211699 0.211699 -0.977335 104.503 64.6598)" fill="#FF00C8"/>
<circle cx="0.5" cy="0.5" r="0.5" transform="matrix(0.977335 0.211699 0.211699 -0.977335 109.309 70.8167)" fill="#FFF700"/>
<circle cx="0.5" cy="0.5" r="0.5" transform="matrix(0.977335 0.211699 0.211699 -0.977335 111.638 60.066)" fill="#00AAFF"/>
<circle cx="0.5" cy="0.5" r="0.5" transform="matrix(-0.977335 -0.211699 -0.211699 0.977335 108.494 60.4082)" fill="#FF0000"/>
<circle cx="0.5" cy="0.5" r="0.5" transform="matrix(-0.977335 -0.211699 -0.211699 0.977335 105.823 68.0152)" fill="#9900FF"/>
<circle cx="0.5" cy="0.5" r="0.5" transform="matrix(-0.977335 -0.211699 -0.211699 0.977335 101.017 61.8584)" fill="#FFF700"/>
<circle cx="0.5" cy="0.5" r="0.5" transform="matrix(-0.977335 -0.211699 -0.211699 0.977335 98.6887 72.609)" fill="#00AAFF"/>
<circle cx="115.538" cy="49.1442" r="0.5" transform="rotate(12.2219 115.538 49.1442)" fill="#FF0000"/>
<circle cx="114.822" cy="57.1746" r="0.5" transform="rotate(12.2219 114.822 57.1746)" fill="#FF00C8"/>
<circle cx="121.744" cy="53.5581" r="0.5" transform="rotate(12.2219 121.744 53.5581)" fill="#E1FF00"/>
<circle cx="119.416" cy="64.3088" r="0.5" transform="rotate(12.2219 119.416 64.3088)" fill="#00FFC4"/>
<circle cx="115.93" cy="61.5073" r="0.5" transform="rotate(-167.778 115.93 61.5073)" fill="#FF0000"/>
<circle cx="116.646" cy="53.4769" r="0.5" transform="rotate(-167.778 116.646 53.4769)" fill="#FFA0BE"/>
<circle cx="109.724" cy="57.0934" r="0.5" transform="rotate(-167.778 109.724 57.0934)" fill="#E1FF00"/>
<circle cx="112.052" cy="46.3427" r="0.5" transform="rotate(-167.778 112.052 46.3427)" fill="#00FFC4"/>
<circle cx="115.245" cy="55.2199" r="0.5" transform="rotate(12.2219 115.245 55.2199)" fill="#FF0000"/>
<circle cx="114.529" cy="63.2503" r="0.5" transform="rotate(12.2219 114.529 63.2503)" fill="#FF00C8"/>
<circle cx="121.452" cy="59.6338" r="0.5" transform="rotate(12.2219 121.452 59.6338)" fill="#E1FF00"/>
<circle cx="119.123" cy="70.3845" r="0.5" transform="rotate(12.2219 119.123 70.3845)" fill="#00FFC4"/>
<circle cx="115.637" cy="67.583" r="0.5" transform="rotate(-167.778 115.637 67.583)" fill="#FF0000"/>
<circle cx="116.353" cy="59.5526" r="0.5" transform="rotate(-167.778 116.353 59.5526)" fill="#FFA0BE"/>
<circle cx="109.431" cy="63.1691" r="0.5" transform="rotate(-167.778 109.431 63.1691)" fill="#E1FF00"/>
<circle cx="111.759" cy="52.4184" r="0.5" transform="rotate(-167.778 111.759 52.4184)" fill="#00FFC4"/>
<circle cx="104.431" cy="81.5268" r="0.5" transform="rotate(-167.778 104.431 81.5268)" fill="#FF0000"/>
<circle cx="105.147" cy="73.4964" r="0.5" transform="rotate(-167.778 105.147 73.4964)" fill="#FF00C8"/>
<circle cx="98.2248" cy="77.1129" r="0.5" transform="rotate(-167.778 98.2248 77.1129)" fill="#E1FF00"/>
<circle cx="100.553" cy="66.3622" r="0.5" transform="rotate(-167.778 100.553 66.3622)" fill="#00FFC4"/>
<circle cx="104.039" cy="69.1637" r="0.5" transform="rotate(12.2219 104.039 69.1637)" fill="#FF0000"/>
<circle cx="103.323" cy="77.1941" r="0.5" transform="rotate(12.2219 103.323 77.1941)" fill="#FFA0BE"/>
<circle cx="110.246" cy="73.5776" r="0.5" transform="rotate(12.2219 110.246 73.5776)" fill="#E1FF00"/>
<circle cx="104.724" cy="75.4511" r="0.5" transform="rotate(-167.778 104.724 75.4511)" fill="#FF0000"/>
<circle cx="105.44" cy="67.4207" r="0.5" transform="rotate(-167.778 105.44 67.4207)" fill="#FF00C8"/>
<circle cx="98.5176" cy="71.0372" r="0.5" transform="rotate(-167.778 98.5176 71.0372)" fill="#E1FF00"/>
<circle cx="100.846" cy="60.2865" r="0.5" transform="rotate(-167.778 100.846 60.2865)" fill="#00FFC4"/>
<circle cx="104.332" cy="63.088" r="0.5" transform="rotate(12.2219 104.332 63.088)" fill="#FF0000"/>
<circle cx="103.616" cy="71.1184" r="0.5" transform="rotate(12.2219 103.616 71.1184)" fill="#FFA0BE"/>
<circle cx="110.539" cy="67.5019" r="0.5" transform="rotate(12.2219 110.539 67.5019)" fill="#E1FF00"/>
<circle cx="108.21" cy="78.2526" r="0.5" transform="rotate(12.2219 108.21 78.2526)" fill="#00FFC4"/>
<circle cx="0.5" cy="0.5" r="0.5" transform="matrix(0.977335 0.211699 0.211699 -0.977335 96.2614 64.9209)" fill="#FF0000"/>
<circle cx="0.5" cy="0.5" r="0.5" transform="matrix(0.977335 0.211699 0.211699 -0.977335 98.9323 57.3139)" fill="#FF00C8"/>
<circle cx="0.5" cy="0.5" r="0.5" transform="matrix(0.977335 0.211699 0.211699 -0.977335 103.738 63.4708)" fill="#E1FF00"/>
<circle cx="0.5" cy="0.5" r="0.5" transform="matrix(0.977335 0.211699 0.211699 -0.977335 106.066 52.7201)" fill="#00FFC4"/>
<circle cx="0.5" cy="0.5" r="0.5" transform="matrix(-0.977335 -0.211699 -0.211699 0.977335 102.923 53.0623)" fill="#FF0000"/>
<circle cx="0.5" cy="0.5" r="0.5" transform="matrix(-0.977335 -0.211699 -0.211699 0.977335 100.252 60.6693)" fill="#FFA0BE"/>
<circle cx="0.5" cy="0.5" r="0.5" transform="matrix(-0.977335 -0.211699 -0.211699 0.977335 95.4463 54.5125)" fill="#E1FF00"/>
<circle cx="0.5" cy="0.5" r="0.5" transform="matrix(-0.977335 -0.211699 -0.211699 0.977335 93.1176 65.2631)" fill="#00FFC4"/>
<circle cx="0.5" cy="0.5" r="0.5" transform="matrix(0.977335 0.211699 0.211699 -0.977335 98.5089 59.2686)" fill="#FF0000"/>
<circle cx="0.5" cy="0.5" r="0.5" transform="matrix(0.977335 0.211699 0.211699 -0.977335 101.18 51.6616)" fill="#FF00C8"/>
<circle cx="0.5" cy="0.5" r="0.5" transform="matrix(0.977335 0.211699 0.211699 -0.977335 105.985 57.8185)" fill="#E1FF00"/>
<circle cx="0.5" cy="0.5" r="0.5" transform="matrix(0.977335 0.211699 0.211699 -0.977335 108.314 47.0678)" fill="#00FFC4"/>
<circle cx="0.5" cy="0.5" r="0.5" transform="matrix(-0.977335 -0.211699 -0.211699 0.977335 105.17 47.41)" fill="#FF0000"/>
<circle cx="0.5" cy="0.5" r="0.5" transform="matrix(-0.977335 -0.211699 -0.211699 0.977335 102.499 55.017)" fill="#FFA0BE"/>
<circle cx="0.5" cy="0.5" r="0.5" transform="matrix(-0.977335 -0.211699 -0.211699 0.977335 97.6938 48.8602)" fill="#E1FF00"/>
<circle cx="0.5" cy="0.5" r="0.5" transform="matrix(-0.977335 -0.211699 -0.211699 0.977335 95.3651 59.6108)" fill="#00FFC4"/>
<circle cx="0.5" cy="0.5" r="0.5" transform="matrix(0.977335 0.211699 0.211699 -0.977335 77.7238 46.5808)" fill="#FF0000"/>
<circle cx="0.5" cy="0.5" r="0.5" transform="matrix(0.977335 0.211699 0.211699 -0.977335 80.3947 38.9739)" fill="#FF00C8"/>
<circle cx="0.5" cy="0.5" r="0.5" transform="matrix(0.977335 0.211699 0.211699 -0.977335 85.2002 45.1307)" fill="#FFF700"/>
<circle cx="0.5" cy="0.5" r="0.5" transform="matrix(0.977335 0.211699 0.211699 -0.977335 87.5289 34.3801)" fill="#00AAFF"/>
<circle cx="0.5" cy="0.5" r="0.5" transform="matrix(-0.977335 -0.211699 -0.211699 0.977335 84.3851 34.7223)" fill="#FF0000"/>
<circle cx="0.5" cy="0.5" r="0.5" transform="matrix(-0.977335 -0.211699 -0.211699 0.977335 81.7142 42.3293)" fill="#9900FF"/>
<circle cx="0.5" cy="0.5" r="0.5" transform="matrix(-0.977335 -0.211699 -0.211699 0.977335 76.9087 36.1724)" fill="#FFF700"/>
<circle cx="0.5" cy="0.5" r="0.5" transform="matrix(-0.977335 -0.211699 -0.211699 0.977335 74.58 46.9231)" fill="#00AAFF"/>
<circle cx="0.5" cy="0.5" r="0.5" transform="matrix(0.977335 0.211699 0.211699 -0.977335 79.9713 40.9285)" fill="#FF0000"/>
<circle cx="0.5" cy="0.5" r="0.5" transform="matrix(0.977335 0.211699 0.211699 -0.977335 82.6422 33.3216)" fill="#FF00C8"/>
<circle cx="0.5" cy="0.5" r="0.5" transform="matrix(0.977335 0.211699 0.211699 -0.977335 87.4477 39.4784)" fill="#FFF700"/>
<circle cx="0.5" cy="0.5" r="0.5" transform="matrix(0.977335 0.211699 0.211699 -0.977335 89.7764 28.7277)" fill="#00AAFF"/>
<circle cx="0.5" cy="0.5" r="0.5" transform="matrix(-0.977335 -0.211699 -0.211699 0.977335 86.6326 29.07)" fill="#FF0000"/>
<circle cx="0.5" cy="0.5" r="0.5" transform="matrix(-0.977335 -0.211699 -0.211699 0.977335 83.9617 36.677)" fill="#9900FF"/>
<circle cx="0.5" cy="0.5" r="0.5" transform="matrix(-0.977335 -0.211699 -0.211699 0.977335 79.1562 30.5201)" fill="#FFF700"/>
<circle cx="0.5" cy="0.5" r="0.5" transform="matrix(-0.977335 -0.211699 -0.211699 0.977335 76.8275 41.2708)" fill="#00AAFF"/>
<circle cx="88.5149" cy="46.3603" r="0.5" transform="rotate(-167.778 88.5149 46.3603)" fill="#FF0000"/>
<circle cx="89.2312" cy="38.33" r="0.5" transform="rotate(-167.778 89.2312 38.33)" fill="#FF00C8"/>
<circle cx="82.3087" cy="41.9464" r="0.5" transform="rotate(-167.778 82.3087 41.9464)" fill="#FFF700"/>
<circle cx="84.6374" cy="31.1958" r="0.5" transform="rotate(-167.778 84.6374 31.1958)" fill="#00AAFF"/>
<circle cx="88.1234" cy="33.9972" r="0.5" transform="rotate(12.2219 88.1234 33.9972)" fill="#FF0000"/>
<circle cx="87.4071" cy="42.0276" r="0.5" transform="rotate(12.2219 87.4071 42.0276)" fill="#9900FF"/>
<circle cx="94.3296" cy="38.4111" r="0.5" transform="rotate(12.2219 94.3296 38.4111)" fill="#FFF700"/>
<circle cx="92.0009" cy="49.1618" r="0.5" transform="rotate(12.2219 92.0009 49.1618)" fill="#00AAFF"/>
<circle cx="88.8078" cy="40.2846" r="0.5" transform="rotate(-167.778 88.8078 40.2846)" fill="#FF0000"/>
<circle cx="89.524" cy="32.2543" r="0.5" transform="rotate(-167.778 89.524 32.2543)" fill="#FF00C8"/>
<circle cx="82.6016" cy="35.8707" r="0.5" transform="rotate(-167.778 82.6016 35.8707)" fill="#FFF700"/>
<circle cx="84.9302" cy="25.1201" r="0.5" transform="rotate(-167.778 84.9302 25.1201)" fill="#00AAFF"/>
<circle cx="88.4162" cy="27.9215" r="0.5" transform="rotate(12.2219 88.4162 27.9215)" fill="#FF0000"/>
<circle cx="87.7" cy="35.9519" r="0.5" transform="rotate(12.2219 87.7 35.9519)" fill="#9900FF"/>
<circle cx="94.6224" cy="32.3354" r="0.5" transform="rotate(12.2219 94.6224 32.3354)" fill="#FFF700"/>
<circle cx="92.2938" cy="43.0861" r="0.5" transform="rotate(12.2219 92.2938 43.0861)" fill="#00AAFF"/>
<circle cx="0.5" cy="0.5" r="0.5" transform="matrix(0.977335 0.211699 0.211699 -0.977335 80.3453 29.7545)" fill="#FF0000"/>
<circle cx="0.5" cy="0.5" r="0.5" transform="matrix(0.977335 0.211699 0.211699 -0.977335 83.0162 22.1475)" fill="#FF00C8"/>
<circle cx="0.5" cy="0.5" r="0.5" transform="matrix(0.977335 0.211699 0.211699 -0.977335 87.8217 28.3043)" fill="#FFF700"/>
<circle cx="0.5" cy="0.5" r="0.5" transform="matrix(0.977335 0.211699 0.211699 -0.977335 90.1504 17.5537)" fill="#00AAFF"/>
<circle cx="0.5" cy="0.5" r="0.5" transform="matrix(-0.977335 -0.211699 -0.211699 0.977335 87.0067 17.8959)" fill="#FF0000"/>
<circle cx="0.5" cy="0.5" r="0.5" transform="matrix(-0.977335 -0.211699 -0.211699 0.977335 84.3358 25.5029)" fill="#9900FF"/>
<circle cx="0.5" cy="0.5" r="0.5" transform="matrix(-0.977335 -0.211699 -0.211699 0.977335 79.5302 19.346)" fill="#FFF700"/>
<circle cx="0.5" cy="0.5" r="0.5" transform="matrix(-0.977335 -0.211699 -0.211699 0.977335 77.2015 30.0967)" fill="#00AAFF"/>
<circle cx="0.5" cy="0.5" r="0.5" transform="matrix(0.977335 0.211699 0.211699 -0.977335 82.5928 24.1021)" fill="#FF0000"/>
<circle cx="0.5" cy="0.5" r="0.5" transform="matrix(0.977335 0.211699 0.211699 -0.977335 85.2637 16.4952)" fill="#FF00C8"/>
<circle cx="0.5" cy="0.5" r="0.5" transform="matrix(0.977335 0.211699 0.211699 -0.977335 90.0692 22.652)" fill="#FFF700"/>
<circle cx="0.5" cy="0.5" r="0.5" transform="matrix(0.977335 0.211699 0.211699 -0.977335 92.3979 11.9013)" fill="#00AAFF"/>
<circle cx="0.5" cy="0.5" r="0.5" transform="matrix(-0.977335 -0.211699 -0.211699 0.977335 89.2542 12.2436)" fill="#FF0000"/>
<circle cx="0.5" cy="0.5" r="0.5" transform="matrix(-0.977335 -0.211699 -0.211699 0.977335 86.5833 19.8506)" fill="#9900FF"/>
<circle cx="0.5" cy="0.5" r="0.5" transform="matrix(-0.977335 -0.211699 -0.211699 0.977335 81.7777 13.6937)" fill="#FFF700"/>
<circle cx="0.5" cy="0.5" r="0.5" transform="matrix(-0.977335 -0.211699 -0.211699 0.977335 79.449 24.4444)" fill="#00AAFF"/>
<circle cx="96.9194" cy="35.9025" r="0.5" transform="rotate(-167.778 96.9194 35.9025)" fill="#FF0000"/>
<circle cx="97.6356" cy="27.8721" r="0.5" transform="rotate(-167.778 97.6356 27.8721)" fill="#FF00C8"/>
<circle cx="90.7131" cy="31.4886" r="0.5" transform="rotate(-167.778 90.7131 31.4886)" fill="#E1FF00"/>
<circle cx="93.0418" cy="20.7379" r="0.5" transform="rotate(-167.778 93.0418 20.7379)" fill="#00FFC4"/>
<circle cx="96.5278" cy="23.5394" r="0.5" transform="rotate(12.2219 96.5278 23.5394)" fill="#FF0000"/>
<circle cx="95.8115" cy="31.5698" r="0.5" transform="rotate(12.2219 95.8115 31.5698)" fill="#FFA0BE"/>
<circle cx="102.734" cy="27.9533" r="0.5" transform="rotate(12.2219 102.734 27.9533)" fill="#E1FF00"/>
<circle cx="100.405" cy="38.704" r="0.5" transform="rotate(12.2219 100.405 38.704)" fill="#00FFC4"/>
<circle cx="97.2122" cy="29.8268" r="0.5" transform="rotate(-167.778 97.2122 29.8268)" fill="#FF0000"/>
<circle cx="97.9285" cy="21.7964" r="0.5" transform="rotate(-167.778 97.9285 21.7964)" fill="#FF00C8"/>
<circle cx="91.006" cy="25.4129" r="0.5" transform="rotate(-167.778 91.006 25.4129)" fill="#E1FF00"/>
<circle cx="93.3346" cy="14.6622" r="0.5" transform="rotate(-167.778 93.3346 14.6622)" fill="#00FFC4"/>
<circle cx="96.8206" cy="17.4637" r="0.5" transform="rotate(12.2219 96.8206 17.4637)" fill="#FF0000"/>
<circle cx="96.1044" cy="25.4941" r="0.5" transform="rotate(12.2219 96.1044 25.4941)" fill="#FFA0BE"/>
<circle cx="103.027" cy="21.8776" r="0.5" transform="rotate(12.2219 103.027 21.8776)" fill="#E1FF00"/>
<circle cx="100.698" cy="32.6283" r="0.5" transform="rotate(12.2219 100.698 32.6283)" fill="#00FFC4"/>
<circle cx="138.831" cy="62.8213" r="0.5" transform="rotate(-167.778 138.831 62.8213)" fill="#FF0000"/>
<circle cx="139.547" cy="54.791" r="0.5" transform="rotate(-167.778 139.547 54.791)" fill="#FF00C8"/>
<circle cx="132.625" cy="58.4074" r="0.5" transform="rotate(-167.778 132.625 58.4074)" fill="#FFF700"/>
<circle cx="134.954" cy="47.6567" r="0.5" transform="rotate(-167.778 134.954 47.6567)" fill="#00AAFF"/>
<circle cx="138.44" cy="50.4582" r="0.5" transform="rotate(12.2219 138.44 50.4582)" fill="#FF0000"/>
<circle cx="137.723" cy="58.4886" r="0.5" transform="rotate(12.2219 137.723 58.4886)" fill="#9900FF"/>
<circle cx="144.646" cy="54.8721" r="0.5" transform="rotate(12.2219 144.646 54.8721)" fill="#FFF700"/>
<circle cx="142.317" cy="65.6228" r="0.5" transform="rotate(12.2219 142.317 65.6228)" fill="#00AAFF"/>
<circle cx="139.124" cy="56.7456" r="0.5" transform="rotate(-167.778 139.124 56.7456)" fill="#FF0000"/>
<circle cx="139.84" cy="48.7152" r="0.5" transform="rotate(-167.778 139.84 48.7152)" fill="#FF00C8"/>
<circle cx="132.918" cy="52.3317" r="0.5" transform="rotate(-167.778 132.918 52.3317)" fill="#FFF700"/>
<circle cx="135.247" cy="41.581" r="0.5" transform="rotate(-167.778 135.247 41.581)" fill="#00AAFF"/>
<circle cx="138.732" cy="44.3825" r="0.5" transform="rotate(12.2219 138.732 44.3825)" fill="#FF0000"/>
<circle cx="138.016" cy="52.4129" r="0.5" transform="rotate(12.2219 138.016 52.4129)" fill="#9900FF"/>
<circle cx="144.939" cy="48.7964" r="0.5" transform="rotate(12.2219 144.939 48.7964)" fill="#FFF700"/>
<circle cx="142.61" cy="59.5471" r="0.5" transform="rotate(12.2219 142.61 59.5471)" fill="#00AAFF"/>
<circle cx="134.971" cy="71.1939" r="0.5" transform="rotate(-167.778 134.971 71.1939)" fill="#FF00C8"/>
<circle cx="128.049" cy="74.8104" r="0.5" transform="rotate(-167.778 128.049 74.8104)" fill="#FFF700"/>
<circle cx="130.377" cy="64.0597" r="0.5" transform="rotate(-167.778 130.377 64.0597)" fill="#00AAFF"/>
<circle cx="133.863" cy="66.8612" r="0.5" transform="rotate(12.2219 133.863 66.8612)" fill="#FF0000"/>
<path d="M133.253 71.2983C133.195 71.5681 132.928 71.7395 132.659 71.6811C132.389 71.6226 132.217 71.3564 132.276 71.0866C132.334 70.8167 132.6 70.6453 132.87 70.7037C133.14 70.7622 133.312 71.0284 133.253 71.2983Z" fill="#9900FF"/>
<circle cx="137.594" cy="69.5945" r="0.5" transform="rotate(12.2219 137.594 69.5945)" fill="#FFF700"/>
<circle cx="134.548" cy="73.1486" r="0.5" transform="rotate(-167.778 134.548 73.1486)" fill="#FF0000"/>
<circle cx="135.264" cy="65.1182" r="0.5" transform="rotate(-167.778 135.264 65.1182)" fill="#FF00C8"/>
<circle cx="128.342" cy="68.7347" r="0.5" transform="rotate(-167.778 128.342 68.7347)" fill="#FFF700"/>
<circle cx="130.67" cy="57.984" r="0.5" transform="rotate(-167.778 130.67 57.984)" fill="#00AAFF"/>
<circle cx="134.156" cy="60.7855" r="0.5" transform="rotate(12.2219 134.156 60.7855)" fill="#FF0000"/>
<circle cx="133.44" cy="68.8159" r="0.5" transform="rotate(12.2219 133.44 68.8159)" fill="#9900FF"/>
<circle cx="140.362" cy="65.1994" r="0.5" transform="rotate(12.2219 140.362 65.1994)" fill="#FFF700"/>
<circle cx="129.301" cy="45.4092" r="0.5" transform="rotate(-167.778 129.301 45.4092)" fill="#FF0000"/>
<circle cx="130.018" cy="37.3788" r="0.5" transform="rotate(-167.778 130.018 37.3788)" fill="#FF00C8"/>
<circle cx="123.095" cy="40.9953" r="0.5" transform="rotate(-167.778 123.095 40.9953)" fill="#FFF700"/>
<circle cx="125.424" cy="30.2446" r="0.5" transform="rotate(-167.778 125.424 30.2446)" fill="#00AAFF"/>
<circle cx="128.91" cy="33.0461" r="0.5" transform="rotate(12.2219 128.91 33.0461)" fill="#FF0000"/>
<circle cx="128.193" cy="41.0765" r="0.5" transform="rotate(12.2219 128.193 41.0765)" fill="#9900FF"/>
<circle cx="135.116" cy="37.46" r="0.5" transform="rotate(12.2219 135.116 37.46)" fill="#FFF700"/>
<circle cx="132.787" cy="48.2107" r="0.5" transform="rotate(12.2219 132.787 48.2107)" fill="#00AAFF"/>
<circle cx="129.594" cy="39.3335" r="0.5" transform="rotate(-167.778 129.594 39.3335)" fill="#FF0000"/>
<circle cx="130.31" cy="31.3031" r="0.5" transform="rotate(-167.778 130.31 31.3031)" fill="#FF00C8"/>
<circle cx="123.388" cy="34.9196" r="0.5" transform="rotate(-167.778 123.388 34.9196)" fill="#FFF700"/>
<circle cx="125.717" cy="24.1689" r="0.5" transform="rotate(-167.778 125.717 24.1689)" fill="#00AAFF"/>
<circle cx="129.203" cy="26.9704" r="0.5" transform="rotate(12.2219 129.203 26.9704)" fill="#FF0000"/>
<circle cx="128.486" cy="35.0008" r="0.5" transform="rotate(12.2219 128.486 35.0008)" fill="#9900FF"/>
<circle cx="135.409" cy="31.3843" r="0.5" transform="rotate(12.2219 135.409 31.3843)" fill="#FFF700"/>
<circle cx="133.08" cy="42.135" r="0.5" transform="rotate(12.2219 133.08 42.135)" fill="#00AAFF"/>
<circle cx="0.5" cy="0.5" r="0.5" transform="matrix(-0.977335 -0.211699 -0.211699 0.977335 128.788 40.6937)" fill="#FF0000"/>
<circle cx="0.5" cy="0.5" r="0.5" transform="matrix(-0.977335 -0.211699 -0.211699 0.977335 126.117 48.3007)" fill="#FF00C8"/>
<circle cx="0.5" cy="0.5" r="0.5" transform="matrix(-0.977335 -0.211699 -0.211699 0.977335 121.312 42.1438)" fill="#FFF700"/>
<circle cx="0.5" cy="0.5" r="0.5" transform="matrix(-0.977335 -0.211699 -0.211699 0.977335 118.983 52.8945)" fill="#00AAFF"/>
<circle cx="0.5" cy="0.5" r="0.5" transform="matrix(0.977335 0.211699 0.211699 -0.977335 122.127 52.5522)" fill="#FF0000"/>
<circle cx="0.5" cy="0.5" r="0.5" transform="matrix(0.977335 0.211699 0.211699 -0.977335 124.797 44.9453)" fill="#9900FF"/>
<circle cx="0.5" cy="0.5" r="0.5" transform="matrix(0.977335 0.211699 0.211699 -0.977335 129.603 51.1021)" fill="#FFF700"/>
<circle cx="0.5" cy="0.5" r="0.5" transform="matrix(0.977335 0.211699 0.211699 -0.977335 131.932 40.3514)" fill="#00AAFF"/>
<circle cx="0.5" cy="0.5" r="0.5" transform="matrix(-0.977335 -0.211699 -0.211699 0.977335 126.54 46.346)" fill="#FF0000"/>
<circle cx="0.5" cy="0.5" r="0.5" transform="matrix(-0.977335 -0.211699 -0.211699 0.977335 123.87 53.953)" fill="#FF00C8"/>
<circle cx="0.5" cy="0.5" r="0.5" transform="matrix(-0.977335 -0.211699 -0.211699 0.977335 119.064 47.7961)" fill="#FFF700"/>
<circle cx="0.5" cy="0.5" r="0.5" transform="matrix(-0.977335 -0.211699 -0.211699 0.977335 116.735 58.5468)" fill="#00AAFF"/>
<circle cx="0.5" cy="0.5" r="0.5" transform="matrix(0.977335 0.211699 0.211699 -0.977335 119.879 58.2045)" fill="#FF0000"/>
<circle cx="0.5" cy="0.5" r="0.5" transform="matrix(0.977335 0.211699 0.211699 -0.977335 122.55 50.5976)" fill="#9900FF"/>
<circle cx="0.5" cy="0.5" r="0.5" transform="matrix(0.977335 0.211699 0.211699 -0.977335 127.356 56.7544)" fill="#FFF700"/>
<circle cx="0.5" cy="0.5" r="0.5" transform="matrix(0.977335 0.211699 0.211699 -0.977335 129.684 46.0037)" fill="#00AAFF"/>
<circle cx="0.5" cy="0.5" r="0.5" transform="matrix(0.977335 0.211699 0.211699 -0.977335 124.311 75.5355)" fill="#FF0000"/>
<circle cx="0.5" cy="0.5" r="0.5" transform="matrix(0.977335 0.211699 0.211699 -0.977335 126.982 67.9285)" fill="#FF00C8"/>
<circle cx="0.5" cy="0.5" r="0.5" transform="matrix(0.977335 0.211699 0.211699 -0.977335 131.787 74.0854)" fill="#FFF700"/>
<circle cx="0.5" cy="0.5" r="0.5" transform="matrix(0.977335 0.211699 0.211699 -0.977335 134.116 63.3347)" fill="#00AAFF"/>
<circle cx="0.5" cy="0.5" r="0.5" transform="matrix(-0.977335 -0.211699 -0.211699 0.977335 130.972 63.6769)" fill="#FF0000"/>
<circle cx="0.5" cy="0.5" r="0.5" transform="matrix(-0.977335 -0.211699 -0.211699 0.977335 128.301 71.2839)" fill="#9900FF"/>
<circle cx="0.5" cy="0.5" r="0.5" transform="matrix(-0.977335 -0.211699 -0.211699 0.977335 123.496 65.1271)" fill="#FFF700"/>
<circle cx="0.5" cy="0.5" r="0.5" transform="matrix(-0.977335 -0.211699 -0.211699 0.977335 121.167 75.8777)" fill="#00AAFF"/>
<circle cx="0.5" cy="0.5" r="0.5" transform="matrix(0.977335 0.211699 0.211699 -0.977335 126.558 69.8832)" fill="#FF0000"/>
<circle cx="0.5" cy="0.5" r="0.5" transform="matrix(0.977335 0.211699 0.211699 -0.977335 129.229 62.2762)" fill="#FF00C8"/>
<circle cx="0.5" cy="0.5" r="0.5" transform="matrix(0.977335 0.211699 0.211699 -0.977335 134.035 68.4331)" fill="#FFF700"/>
<circle cx="0.5" cy="0.5" r="0.5" transform="matrix(0.977335 0.211699 0.211699 -0.977335 136.363 57.6824)" fill="#00AAFF"/>
<circle cx="0.5" cy="0.5" r="0.5" transform="matrix(-0.977335 -0.211699 -0.211699 0.977335 133.219 58.0246)" fill="#FF0000"/>
<circle cx="0.5" cy="0.5" r="0.5" transform="matrix(-0.977335 -0.211699 -0.211699 0.977335 130.549 65.6316)" fill="#9900FF"/>
<circle cx="0.5" cy="0.5" r="0.5" transform="matrix(-0.977335 -0.211699 -0.211699 0.977335 125.743 59.4747)" fill="#FFF700"/>
<circle cx="0.5" cy="0.5" r="0.5" transform="matrix(-0.977335 -0.211699 -0.211699 0.977335 123.414 70.2254)" fill="#00AAFF"/>
<circle cx="140.264" cy="46.7606" r="0.5" transform="rotate(12.2219 140.264 46.7606)" fill="#FF0000"/>
<circle cx="139.547" cy="54.791" r="0.5" transform="rotate(12.2219 139.547 54.791)" fill="#FF00C8"/>
<circle cx="146.47" cy="51.1745" r="0.5" transform="rotate(12.2219 146.47 51.1745)" fill="#E1FF00"/>
<circle cx="144.141" cy="61.9252" r="0.5" transform="rotate(12.2219 144.141 61.9252)" fill="#00FFC4"/>
<circle cx="140.655" cy="59.1237" r="0.5" transform="rotate(-167.778 140.655 59.1237)" fill="#FF0000"/>
<circle cx="141.372" cy="51.0933" r="0.5" transform="rotate(-167.778 141.372 51.0933)" fill="#FFA0BE"/>
<circle cx="134.449" cy="54.7098" r="0.5" transform="rotate(-167.778 134.449 54.7098)" fill="#E1FF00"/>
<circle cx="136.778" cy="43.9591" r="0.5" transform="rotate(-167.778 136.778 43.9591)" fill="#00FFC4"/>
<circle cx="139.971" cy="52.8363" r="0.5" transform="rotate(12.2219 139.971 52.8363)" fill="#FF0000"/>
<circle cx="139.255" cy="60.8667" r="0.5" transform="rotate(12.2219 139.255 60.8667)" fill="#FF00C8"/>
<circle cx="146.177" cy="57.2502" r="0.5" transform="rotate(12.2219 146.177 57.2502)" fill="#E1FF00"/>
<path d="M140.383 67.5945C140.324 67.8644 140.058 68.0358 139.788 67.9773C139.518 67.9189 139.347 67.6527 139.405 67.3828C139.464 67.1129 139.73 66.9415 140 67C140.27 67.0585 140.441 67.3246 140.383 67.5945Z" fill="#00FFC4"/>
<circle cx="140.362" cy="65.1994" r="0.5" transform="rotate(-167.778 140.362 65.1994)" fill="#FF0000"/>
<circle cx="141.079" cy="57.169" r="0.5" transform="rotate(-167.778 141.079 57.169)" fill="#FFA0BE"/>
<circle cx="134.156" cy="60.7855" r="0.5" transform="rotate(-167.778 134.156 60.7855)" fill="#E1FF00"/>
<circle cx="136.485" cy="50.0348" r="0.5" transform="rotate(-167.778 136.485 50.0348)" fill="#00FFC4"/>
<circle cx="129.873" cy="71.1128" r="0.5" transform="rotate(-167.778 129.873 71.1128)" fill="#FF00C8"/>
<circle cx="122.95" cy="74.7293" r="0.5" transform="rotate(-167.778 122.95 74.7293)" fill="#E1FF00"/>
<circle cx="125.279" cy="63.9786" r="0.5" transform="rotate(-167.778 125.279 63.9786)" fill="#00FFC4"/>
<circle cx="128.765" cy="66.7801" r="0.5" transform="rotate(12.2219 128.765 66.7801)" fill="#FF0000"/>
<circle cx="128.049" cy="74.8104" r="0.5" transform="rotate(12.2219 128.049 74.8104)" fill="#FFA0BE"/>
<circle cx="134.971" cy="71.1939" r="0.5" transform="rotate(12.2219 134.971 71.1939)" fill="#E1FF00"/>
<circle cx="129.45" cy="73.0675" r="0.5" transform="rotate(-167.778 129.45 73.0675)" fill="#FF0000"/>
<circle cx="130.166" cy="65.0371" r="0.5" transform="rotate(-167.778 130.166 65.0371)" fill="#FF00C8"/>
<circle cx="123.243" cy="68.6536" r="0.5" transform="rotate(-167.778 123.243 68.6536)" fill="#E1FF00"/>
<circle cx="125.572" cy="57.9029" r="0.5" transform="rotate(-167.778 125.572 57.9029)" fill="#00FFC4"/>
<circle cx="129.058" cy="60.7043" r="0.5" transform="rotate(12.2219 129.058 60.7043)" fill="#FF0000"/>
<circle cx="128.342" cy="68.7347" r="0.5" transform="rotate(12.2219 128.342 68.7347)" fill="#FFA0BE"/>
<circle cx="135.264" cy="65.1182" r="0.5" transform="rotate(12.2219 135.264 65.1182)" fill="#E1FF00"/>
<circle cx="0.5" cy="0.5" r="0.5" transform="matrix(0.977335 0.211699 0.211699 -0.977335 120.987 62.5373)" fill="#FF0000"/>
<circle cx="0.5" cy="0.5" r="0.5" transform="matrix(0.977335 0.211699 0.211699 -0.977335 123.658 54.9303)" fill="#FF00C8"/>
<circle cx="0.5" cy="0.5" r="0.5" transform="matrix(0.977335 0.211699 0.211699 -0.977335 128.463 61.0872)" fill="#E1FF00"/>
<circle cx="0.5" cy="0.5" r="0.5" transform="matrix(0.977335 0.211699 0.211699 -0.977335 130.792 50.3365)" fill="#00FFC4"/>
<circle cx="0.5" cy="0.5" r="0.5" transform="matrix(-0.977335 -0.211699 -0.211699 0.977335 127.648 50.6787)" fill="#FF0000"/>
<circle cx="0.5" cy="0.5" r="0.5" transform="matrix(-0.977335 -0.211699 -0.211699 0.977335 124.977 58.2857)" fill="#FFA0BE"/>
<circle cx="0.5" cy="0.5" r="0.5" transform="matrix(-0.977335 -0.211699 -0.211699 0.977335 120.172 52.1288)" fill="#E1FF00"/>
<circle cx="0.5" cy="0.5" r="0.5" transform="matrix(-0.977335 -0.211699 -0.211699 0.977335 117.843 62.8795)" fill="#00FFC4"/>
<circle cx="0.5" cy="0.5" r="0.5" transform="matrix(0.977335 0.211699 0.211699 -0.977335 123.234 56.885)" fill="#FF0000"/>
<circle cx="0.5" cy="0.5" r="0.5" transform="matrix(0.977335 0.211699 0.211699 -0.977335 125.905 49.278)" fill="#FF00C8"/>
<circle cx="0.5" cy="0.5" r="0.5" transform="matrix(0.977335 0.211699 0.211699 -0.977335 130.711 55.4348)" fill="#E1FF00"/>
<circle cx="0.5" cy="0.5" r="0.5" transform="matrix(0.977335 0.211699 0.211699 -0.977335 133.04 44.6842)" fill="#00FFC4"/>
<circle cx="0.5" cy="0.5" r="0.5" transform="matrix(-0.977335 -0.211699 -0.211699 0.977335 129.896 45.0264)" fill="#FF0000"/>
<circle cx="0.5" cy="0.5" r="0.5" transform="matrix(-0.977335 -0.211699 -0.211699 0.977335 127.225 52.6334)" fill="#FFA0BE"/>
<circle cx="0.5" cy="0.5" r="0.5" transform="matrix(-0.977335 -0.211699 -0.211699 0.977335 122.419 46.4765)" fill="#E1FF00"/>
<circle cx="0.5" cy="0.5" r="0.5" transform="matrix(-0.977335 -0.211699 -0.211699 0.977335 120.091 57.2272)" fill="#00FFC4"/>
<circle cx="0.5" cy="0.5" r="0.5" transform="matrix(0.977335 0.211699 0.211699 -0.977335 102.449 44.1972)" fill="#FF0000"/>
<circle cx="0.5" cy="0.5" r="0.5" transform="matrix(0.977335 0.211699 0.211699 -0.977335 105.12 36.5902)" fill="#FF00C8"/>
<circle cx="0.5" cy="0.5" r="0.5" transform="matrix(0.977335 0.211699 0.211699 -0.977335 109.926 42.7471)" fill="#FFF700"/>
<circle cx="0.5" cy="0.5" r="0.5" transform="matrix(0.977335 0.211699 0.211699 -0.977335 112.255 31.9964)" fill="#00AAFF"/>
<circle cx="0.5" cy="0.5" r="0.5" transform="matrix(-0.977335 -0.211699 -0.211699 0.977335 109.111 32.3387)" fill="#FF0000"/>
<circle cx="0.5" cy="0.5" r="0.5" transform="matrix(-0.977335 -0.211699 -0.211699 0.977335 106.44 39.9456)" fill="#9900FF"/>
<circle cx="0.5" cy="0.5" r="0.5" transform="matrix(-0.977335 -0.211699 -0.211699 0.977335 101.634 33.7888)" fill="#FFF700"/>
<circle cx="0.5" cy="0.5" r="0.5" transform="matrix(-0.977335 -0.211699 -0.211699 0.977335 99.3057 44.5395)" fill="#00AAFF"/>
<circle cx="0.5" cy="0.5" r="0.5" transform="matrix(0.977335 0.211699 0.211699 -0.977335 104.697 38.5449)" fill="#FF0000"/>
<circle cx="0.5" cy="0.5" r="0.5" transform="matrix(0.977335 0.211699 0.211699 -0.977335 107.368 30.9379)" fill="#FF00C8"/>
<circle cx="0.5" cy="0.5" r="0.5" transform="matrix(0.977335 0.211699 0.211699 -0.977335 112.173 37.0948)" fill="#FFF700"/>
<circle cx="0.5" cy="0.5" r="0.5" transform="matrix(0.977335 0.211699 0.211699 -0.977335 114.502 26.3441)" fill="#00AAFF"/>
<circle cx="0.5" cy="0.5" r="0.5" transform="matrix(-0.977335 -0.211699 -0.211699 0.977335 111.358 26.6863)" fill="#FF0000"/>
<circle cx="0.5" cy="0.5" r="0.5" transform="matrix(-0.977335 -0.211699 -0.211699 0.977335 108.687 34.2933)" fill="#9900FF"/>
<circle cx="0.5" cy="0.5" r="0.5" transform="matrix(-0.977335 -0.211699 -0.211699 0.977335 103.882 28.1365)" fill="#FFF700"/>
<circle cx="0.5" cy="0.5" r="0.5" transform="matrix(-0.977335 -0.211699 -0.211699 0.977335 101.553 38.8871)" fill="#00AAFF"/>
<circle cx="113.241" cy="43.9767" r="0.5" transform="rotate(-167.778 113.241 43.9767)" fill="#FF0000"/>
<circle cx="113.957" cy="35.9463" r="0.5" transform="rotate(-167.778 113.957 35.9463)" fill="#FF00C8"/>
<circle cx="107.034" cy="39.5628" r="0.5" transform="rotate(-167.778 107.034 39.5628)" fill="#FFF700"/>
<circle cx="109.363" cy="28.8121" r="0.5" transform="rotate(-167.778 109.363 28.8121)" fill="#00AAFF"/>
<circle cx="112.849" cy="31.6136" r="0.5" transform="rotate(12.2219 112.849 31.6136)" fill="#FF0000"/>
<circle cx="112.133" cy="39.644" r="0.5" transform="rotate(12.2219 112.133 39.644)" fill="#9900FF"/>
<circle cx="119.055" cy="36.0275" r="0.5" transform="rotate(12.2219 119.055 36.0275)" fill="#FFF700"/>
<circle cx="116.727" cy="46.7782" r="0.5" transform="rotate(12.2219 116.727 46.7782)" fill="#00AAFF"/>
<circle cx="113.533" cy="37.901" r="0.5" transform="rotate(-167.778 113.533 37.901)" fill="#FF0000"/>
<circle cx="114.25" cy="29.8706" r="0.5" transform="rotate(-167.778 114.25 29.8706)" fill="#FF00C8"/>
<circle cx="107.327" cy="33.4871" r="0.5" transform="rotate(-167.778 107.327 33.4871)" fill="#FFF700"/>
<circle cx="109.656" cy="22.7364" r="0.5" transform="rotate(-167.778 109.656 22.7364)" fill="#00AAFF"/>
<circle cx="113.142" cy="25.5379" r="0.5" transform="rotate(12.2219 113.142 25.5379)" fill="#FF0000"/>
<circle cx="112.426" cy="33.5683" r="0.5" transform="rotate(12.2219 112.426 33.5683)" fill="#9900FF"/>
<circle cx="119.348" cy="29.9518" r="0.5" transform="rotate(12.2219 119.348 29.9518)" fill="#FFF700"/>
<circle cx="117.019" cy="40.7025" r="0.5" transform="rotate(12.2219 117.019 40.7025)" fill="#00AAFF"/>
<circle cx="0.5" cy="0.5" r="0.5" transform="matrix(0.977335 0.211699 0.211699 -0.977335 105.071 27.3708)" fill="#FF0000"/>
<circle cx="0.5" cy="0.5" r="0.5" transform="matrix(0.977335 0.211699 0.211699 -0.977335 107.742 19.7638)" fill="#FF00C8"/>
<circle cx="0.5" cy="0.5" r="0.5" transform="matrix(0.977335 0.211699 0.211699 -0.977335 112.547 25.9207)" fill="#FFF700"/>
<circle cx="0.5" cy="0.5" r="0.5" transform="matrix(0.977335 0.211699 0.211699 -0.977335 114.876 15.17)" fill="#00AAFF"/>
<circle cx="0.5" cy="0.5" r="0.5" transform="matrix(-0.977335 -0.211699 -0.211699 0.977335 111.732 15.5123)" fill="#FF0000"/>
<circle cx="0.5" cy="0.5" r="0.5" transform="matrix(-0.977335 -0.211699 -0.211699 0.977335 109.061 23.1192)" fill="#9900FF"/>
<circle cx="0.5" cy="0.5" r="0.5" transform="matrix(-0.977335 -0.211699 -0.211699 0.977335 104.256 16.9624)" fill="#FFF700"/>
<circle cx="0.5" cy="0.5" r="0.5" transform="matrix(-0.977335 -0.211699 -0.211699 0.977335 101.927 27.7131)" fill="#00AAFF"/>
<circle cx="0.5" cy="0.5" r="0.5" transform="matrix(0.977335 0.211699 0.211699 -0.977335 107.318 21.7185)" fill="#FF0000"/>
<circle cx="0.5" cy="0.5" r="0.5" transform="matrix(0.977335 0.211699 0.211699 -0.977335 109.989 14.1115)" fill="#FF00C8"/>
<circle cx="0.5" cy="0.5" r="0.5" transform="matrix(0.977335 0.211699 0.211699 -0.977335 114.795 20.2684)" fill="#FFF700"/>
<circle cx="0.5" cy="0.5" r="0.5" transform="matrix(0.977335 0.211699 0.211699 -0.977335 117.124 9.51772)" fill="#00AAFF"/>
<circle cx="0.5" cy="0.5" r="0.5" transform="matrix(-0.977335 -0.211699 -0.211699 0.977335 113.98 9.85995)" fill="#FF0000"/>
<circle cx="0.5" cy="0.5" r="0.5" transform="matrix(-0.977335 -0.211699 -0.211699 0.977335 111.309 17.4669)" fill="#9900FF"/>
<circle cx="0.5" cy="0.5" r="0.5" transform="matrix(-0.977335 -0.211699 -0.211699 0.977335 106.503 11.3101)" fill="#FFF700"/>
<circle cx="0.5" cy="0.5" r="0.5" transform="matrix(-0.977335 -0.211699 -0.211699 0.977335 104.175 22.0608)" fill="#00AAFF"/>
<circle cx="121.645" cy="33.5189" r="0.5" transform="rotate(-167.778 121.645 33.5189)" fill="#FF0000"/>
<circle cx="122.361" cy="25.4885" r="0.5" transform="rotate(-167.778 122.361 25.4885)" fill="#FF00C8"/>
<circle cx="115.439" cy="29.105" r="0.5" transform="rotate(-167.778 115.439 29.105)" fill="#E1FF00"/>
<circle cx="117.767" cy="18.3543" r="0.5" transform="rotate(-167.778 117.767 18.3543)" fill="#00FFC4"/>
<circle cx="121.253" cy="21.1558" r="0.5" transform="rotate(12.2219 121.253 21.1558)" fill="#FF0000"/>
<circle cx="120.537" cy="29.1862" r="0.5" transform="rotate(12.2219 120.537 29.1862)" fill="#FFA0BE"/>
<circle cx="127.46" cy="25.5697" r="0.5" transform="rotate(12.2219 127.46 25.5697)" fill="#E1FF00"/>
<circle cx="125.131" cy="36.3204" r="0.5" transform="rotate(12.2219 125.131 36.3204)" fill="#00FFC4"/>
<circle cx="121.938" cy="27.4432" r="0.5" transform="rotate(-167.778 121.938 27.4432)" fill="#FF0000"/>
<circle cx="122.654" cy="19.4128" r="0.5" transform="rotate(-167.778 122.654 19.4128)" fill="#FF00C8"/>
<circle cx="115.732" cy="23.0293" r="0.5" transform="rotate(-167.778 115.732 23.0293)" fill="#E1FF00"/>
<circle cx="118.06" cy="12.2786" r="0.5" transform="rotate(-167.778 118.06 12.2786)" fill="#00FFC4"/>
<circle cx="121.546" cy="15.0801" r="0.5" transform="rotate(12.2219 121.546 15.0801)" fill="#FF0000"/>
<circle cx="120.83" cy="23.1104" r="0.5" transform="rotate(12.2219 120.83 23.1104)" fill="#FFA0BE"/>
<circle cx="127.753" cy="19.494" r="0.5" transform="rotate(12.2219 127.753 19.494)" fill="#E1FF00"/>
<circle cx="125.424" cy="30.2446" r="0.5" transform="rotate(12.2219 125.424 30.2446)" fill="#00FFC4"/>
<circle cx="138.837" cy="41.8348" r="0.5" transform="rotate(-167.778 138.837 41.8348)" fill="#FF0000"/>
<circle cx="139.553" cy="33.8044" r="0.5" transform="rotate(-167.778 139.553 33.8044)" fill="#FF00C8"/>
<circle cx="132.63" cy="37.4209" r="0.5" transform="rotate(-167.778 132.63 37.4209)" fill="#FFF700"/>
<circle cx="134.959" cy="26.6702" r="0.5" transform="rotate(-167.778 134.959 26.6702)" fill="#00AAFF"/>
<circle cx="138.445" cy="29.4717" r="0.5" transform="rotate(12.2219 138.445 29.4717)" fill="#FF0000"/>
<circle cx="137.729" cy="37.5021" r="0.5" transform="rotate(12.2219 137.729 37.5021)" fill="#9900FF"/>
<circle cx="144.651" cy="33.8856" r="0.5" transform="rotate(12.2219 144.651 33.8856)" fill="#FFF700"/>
<circle cx="142.323" cy="44.6363" r="0.5" transform="rotate(12.2219 142.323 44.6363)" fill="#00AAFF"/>
<circle cx="139.129" cy="35.7591" r="0.5" transform="rotate(-167.778 139.129 35.7591)" fill="#FF0000"/>
<circle cx="139.846" cy="27.7287" r="0.5" transform="rotate(-167.778 139.846 27.7287)" fill="#FF00C8"/>
<circle cx="132.923" cy="31.3452" r="0.5" transform="rotate(-167.778 132.923 31.3452)" fill="#FFF700"/>
<circle cx="135.252" cy="20.5945" r="0.5" transform="rotate(-167.778 135.252 20.5945)" fill="#00AAFF"/>
<circle cx="138.738" cy="23.396" r="0.5" transform="rotate(12.2219 138.738 23.396)" fill="#FF0000"/>
<circle cx="138.022" cy="31.4263" r="0.5" transform="rotate(12.2219 138.022 31.4263)" fill="#9900FF"/>
<circle cx="144.944" cy="27.8099" r="0.5" transform="rotate(12.2219 144.944 27.8099)" fill="#FFF700"/>
<circle cx="142.615" cy="38.5606" r="0.5" transform="rotate(12.2219 142.615 38.5606)" fill="#00AAFF"/>
<circle cx="0.5" cy="0.5" r="0.5" transform="matrix(0.977335 0.211699 0.211699 -0.977335 118 39.66)" fill="#FF0000"/>
<circle cx="0.5" cy="0.5" r="0.5" transform="matrix(0.977335 0.211699 0.211699 -0.977335 120.671 32.053)" fill="#FF00C8"/>
<circle cx="0.5" cy="0.5" r="0.5" transform="matrix(0.977335 0.211699 0.211699 -0.977335 125.476 38.2099)" fill="#E1FF00"/>
<circle cx="0.5" cy="0.5" r="0.5" transform="matrix(0.977335 0.211699 0.211699 -0.977335 127.805 27.4592)" fill="#00FFC4"/>
<circle cx="0.5" cy="0.5" r="0.5" transform="matrix(-0.977335 -0.211699 -0.211699 0.977335 144.977 44.2857)" fill="#FFA0BE"/>
<circle cx="0.5" cy="0.5" r="0.5" transform="matrix(-0.977335 -0.211699 -0.211699 0.977335 140.172 38.1288)" fill="#E1FF00"/>
<circle cx="0.5" cy="0.5" r="0.5" transform="matrix(-0.977335 -0.211699 -0.211699 0.977335 137.843 48.8795)" fill="#00FFC4"/>
<circle cx="0.5" cy="0.5" r="0.5" transform="matrix(0.977335 0.211699 0.211699 -0.977335 116.31 38.1972)" fill="#FF0000"/>
<circle cx="0.5" cy="0.5" r="0.5" transform="matrix(0.977335 0.211699 0.211699 -0.977335 118.981 30.5902)" fill="#FF00C8"/>
<circle cx="0.5" cy="0.5" r="0.5" transform="matrix(0.977335 0.211699 0.211699 -0.977335 123.787 36.7471)" fill="#FFF700"/>
<circle cx="0.5" cy="0.5" r="0.5" transform="matrix(0.977335 0.211699 0.211699 -0.977335 126.115 25.9964)" fill="#00AAFF"/>
<circle cx="0.5" cy="0.5" r="0.5" transform="matrix(-0.977335 -0.211699 -0.211699 0.977335 122.971 26.3387)" fill="#FF0000"/>
<circle cx="0.5" cy="0.5" r="0.5" transform="matrix(-0.977335 -0.211699 -0.211699 0.977335 120.301 33.9456)" fill="#9900FF"/>
<circle cx="0.5" cy="0.5" r="0.5" transform="matrix(-0.977335 -0.211699 -0.211699 0.977335 115.495 27.7888)" fill="#FFF700"/>
<circle cx="0.5" cy="0.5" r="0.5" transform="matrix(-0.977335 -0.211699 -0.211699 0.977335 113.166 38.5395)" fill="#00AAFF"/>
<circle cx="0.5" cy="0.5" r="0.5" transform="matrix(0.977335 0.211699 0.211699 -0.977335 118.558 32.5449)" fill="#FF0000"/>
<circle cx="0.5" cy="0.5" r="0.5" transform="matrix(0.977335 0.211699 0.211699 -0.977335 121.229 24.9379)" fill="#FF00C8"/>
<circle cx="0.5" cy="0.5" r="0.5" transform="matrix(0.977335 0.211699 0.211699 -0.977335 126.034 31.0948)" fill="#FFF700"/>
<circle cx="0.5" cy="0.5" r="0.5" transform="matrix(0.977335 0.211699 0.211699 -0.977335 128.363 20.3441)" fill="#00AAFF"/>
<circle cx="0.5" cy="0.5" r="0.5" transform="matrix(-0.977335 -0.211699 -0.211699 0.977335 125.219 20.6863)" fill="#FF0000"/>
<circle cx="0.5" cy="0.5" r="0.5" transform="matrix(-0.977335 -0.211699 -0.211699 0.977335 122.548 28.2933)" fill="#9900FF"/>
<circle cx="0.5" cy="0.5" r="0.5" transform="matrix(-0.977335 -0.211699 -0.211699 0.977335 117.743 22.1365)" fill="#FFF700"/>
<circle cx="0.5" cy="0.5" r="0.5" transform="matrix(-0.977335 -0.211699 -0.211699 0.977335 115.414 32.8871)" fill="#00AAFF"/>
<circle cx="127.101" cy="37.9767" r="0.5" transform="rotate(-167.778 127.101 37.9767)" fill="#FF0000"/>
<circle cx="127.818" cy="29.9463" r="0.5" transform="rotate(-167.778 127.818 29.9463)" fill="#FF00C8"/>
<circle cx="120.895" cy="33.5628" r="0.5" transform="rotate(-167.778 120.895 33.5628)" fill="#FFF700"/>
<circle cx="123.224" cy="22.8121" r="0.5" transform="rotate(-167.778 123.224 22.8121)" fill="#00AAFF"/>
<circle cx="126.71" cy="25.6136" r="0.5" transform="rotate(12.2219 126.71 25.6136)" fill="#FF0000"/>
<circle cx="125.993" cy="33.644" r="0.5" transform="rotate(12.2219 125.993 33.644)" fill="#9900FF"/>
<circle cx="132.916" cy="30.0275" r="0.5" transform="rotate(12.2219 132.916 30.0275)" fill="#FFF700"/>
<circle cx="130.587" cy="40.7782" r="0.5" transform="rotate(12.2219 130.587 40.7782)" fill="#00AAFF"/>
<circle cx="127.394" cy="31.901" r="0.5" transform="rotate(-167.778 127.394 31.901)" fill="#FF0000"/>
<circle cx="128.11" cy="23.8706" r="0.5" transform="rotate(-167.778 128.11 23.8706)" fill="#FF00C8"/>
<circle cx="121.188" cy="27.4871" r="0.5" transform="rotate(-167.778 121.188 27.4871)" fill="#FFF700"/>
<circle cx="123.517" cy="16.7364" r="0.5" transform="rotate(-167.778 123.517 16.7364)" fill="#00AAFF"/>
<circle cx="127.003" cy="19.5379" r="0.5" transform="rotate(12.2219 127.003 19.5379)" fill="#FF0000"/>
<circle cx="126.286" cy="27.5683" r="0.5" transform="rotate(12.2219 126.286 27.5683)" fill="#9900FF"/>
<circle cx="133.209" cy="23.9518" r="0.5" transform="rotate(12.2219 133.209 23.9518)" fill="#FFF700"/>
<circle cx="130.88" cy="34.7025" r="0.5" transform="rotate(12.2219 130.88 34.7025)" fill="#00AAFF"/>
<circle cx="0.5" cy="0.5" r="0.5" transform="matrix(0.977335 0.211699 0.211699 -0.977335 118.932 21.3708)" fill="#FF0000"/>
<circle cx="0.5" cy="0.5" r="0.5" transform="matrix(0.977335 0.211699 0.211699 -0.977335 121.603 13.7638)" fill="#FF00C8"/>
<circle cx="0.5" cy="0.5" r="0.5" transform="matrix(0.977335 0.211699 0.211699 -0.977335 126.408 19.9207)" fill="#FFF700"/>
<circle cx="0.5" cy="0.5" r="0.5" transform="matrix(0.977335 0.211699 0.211699 -0.977335 128.737 9.17003)" fill="#00AAFF"/>
<circle cx="0.5" cy="0.5" r="0.5" transform="matrix(-0.977335 -0.211699 -0.211699 0.977335 125.593 9.51227)" fill="#FF0000"/>
<circle cx="0.5" cy="0.5" r="0.5" transform="matrix(-0.977335 -0.211699 -0.211699 0.977335 122.922 17.1192)" fill="#9900FF"/>
<circle cx="0.5" cy="0.5" r="0.5" transform="matrix(-0.977335 -0.211699 -0.211699 0.977335 118.117 10.9624)" fill="#FFF700"/>
<circle cx="0.5" cy="0.5" r="0.5" transform="matrix(-0.977335 -0.211699 -0.211699 0.977335 115.788 21.7131)" fill="#00AAFF"/>
<circle cx="0.5" cy="0.5" r="0.5" transform="matrix(0.977335 0.211699 0.211699 -0.977335 121.179 15.7185)" fill="#FF0000"/>
<circle cx="0.5" cy="0.5" r="0.5" transform="matrix(0.977335 0.211699 0.211699 -0.977335 123.85 8.11154)" fill="#FF00C8"/>
<circle cx="0.5" cy="0.5" r="0.5" transform="matrix(0.977335 0.211699 0.211699 -0.977335 128.656 14.2684)" fill="#FFF700"/>
<circle cx="0.5" cy="0.5" r="0.5" transform="matrix(0.977335 0.211699 0.211699 -0.977335 130.984 3.51772)" fill="#00AAFF"/>
<circle cx="0.5" cy="0.5" r="0.5" transform="matrix(-0.977335 -0.211699 -0.211699 0.977335 127.841 3.85997)" fill="#FF0000"/>
<circle cx="0.5" cy="0.5" r="0.5" transform="matrix(-0.977335 -0.211699 -0.211699 0.977335 125.17 11.4669)" fill="#9900FF"/>
<circle cx="0.5" cy="0.5" r="0.5" transform="matrix(-0.977335 -0.211699 -0.211699 0.977335 120.364 5.31009)" fill="#FFF700"/>
<circle cx="0.5" cy="0.5" r="0.5" transform="matrix(-0.977335 -0.211699 -0.211699 0.977335 118.035 16.0608)" fill="#00AAFF"/>
<circle cx="135.506" cy="27.5189" r="0.5" transform="rotate(-167.778 135.506 27.5189)" fill="#FF0000"/>
<circle cx="136.222" cy="19.4885" r="0.5" transform="rotate(-167.778 136.222 19.4885)" fill="#FF00C8"/>
<circle cx="129.299" cy="23.105" r="0.5" transform="rotate(-167.778 129.299 23.105)" fill="#E1FF00"/>
<circle cx="131.628" cy="12.3543" r="0.5" transform="rotate(-167.778 131.628 12.3543)" fill="#00FFC4"/>
<circle cx="135.114" cy="15.1558" r="0.5" transform="rotate(12.2219 135.114 15.1558)" fill="#FF0000"/>
<circle cx="134.398" cy="23.1862" r="0.5" transform="rotate(12.2219 134.398 23.1862)" fill="#FFA0BE"/>
<circle cx="141.32" cy="19.5697" r="0.5" transform="rotate(12.2219 141.32 19.5697)" fill="#E1FF00"/>
<circle cx="138.992" cy="30.3204" r="0.5" transform="rotate(12.2219 138.992 30.3204)" fill="#00FFC4"/>
<circle cx="135.799" cy="21.4432" r="0.5" transform="rotate(-167.778 135.799 21.4432)" fill="#FF0000"/>
<circle cx="136.515" cy="13.4128" r="0.5" transform="rotate(-167.778 136.515 13.4128)" fill="#FF00C8"/>
<circle cx="129.592" cy="17.0293" r="0.5" transform="rotate(-167.778 129.592 17.0293)" fill="#E1FF00"/>
<circle cx="131.921" cy="6.27861" r="0.5" transform="rotate(-167.778 131.921 6.27861)" fill="#00FFC4"/>
<circle cx="135.407" cy="9.08007" r="0.5" transform="rotate(12.2219 135.407 9.08007)" fill="#FF0000"/>
<circle cx="134.691" cy="17.1104" r="0.5" transform="rotate(12.2219 134.691 17.1104)" fill="#FFA0BE"/>
<circle cx="141.613" cy="13.494" r="0.5" transform="rotate(12.2219 141.613 13.494)" fill="#E1FF00"/>
<circle cx="139.285" cy="24.2446" r="0.5" transform="rotate(12.2219 139.285 24.2446)" fill="#00FFC4"/>
</g>
</svg>
